<svg width="714" height="493" viewBox="0 0 714 493" fill="none" xmlns="http://www.w3.org/2000/svg">
<g clip-path="url(#clip0_2292_572)">
<path opacity="0.3" d="M5.59502 259.023C18.2066 238.449 46.7048 242.049 66.9106 252.8C87.1165 263.552 107.276 279.597 129.52 276.525C148.275 273.934 163.66 257.592 171.976 238.735C180.293 219.877 182.74 198.612 185.087 177.783C188.036 151.616 190.984 125.432 193.929 99.2315C195.009 89.6516 196.282 79.5405 201.674 71.9623C208.799 61.9663 221.853 58.8972 233.016 61.9081C244.18 64.9189 253.697 72.9848 261.838 81.9813C287.919 110.79 302.686 149.724 325.483 181.781C330.125 188.308 335.367 194.76 342.305 197.912C352.305 202.447 363.79 199.247 373.563 194.207C405.452 177.792 426.884 144.273 447.945 112.997C458.192 97.7966 470.683 81.541 487.718 79.8923C505.641 78.119 521.194 93.3932 531.721 109.565C565.505 161.6 572.72 232.622 613.54 278.011C618.607 283.637 624.2 288.839 630.643 292.336C632.768 293.485 634.984 294.458 637.268 295.245C672.896 307.59 684.752 357.091 658.383 386.427C657.814 387.051 657.232 387.676 656.645 388.301C652.729 392.43 648.296 396.334 643.006 397.563C638.086 398.698 633.004 397.384 628.129 395.963C596.964 386.856 566.176 372.944 533.95 373.605C502.593 374.216 472.843 388.683 441.834 393.882C420.985 397.379 399.774 396.67 378.695 395.904C308.49 393.349 238.299 390.381 168.124 387.001C133.292 385.386 98.4478 383.846 63.6225 382.05C36.7924 380.644 19.7027 377.568 16.6031 346.439C13.8894 319.177 -10.5761 285.413 5.59502 259.023Z" fill="white"/>
<path d="M493.809 492.221C587.023 492.261 662.592 481.738 662.598 468.715C662.604 455.693 587.043 445.103 493.829 445.063C400.615 445.022 325.045 455.546 325.04 468.568C325.034 481.591 400.594 492.18 493.809 492.221Z" fill="#263238"/>
<path d="M93.0541 366.745C93.0541 366.745 101.307 364.874 106.712 370.42C106.712 370.42 103.234 373.543 95.0593 370.077L93.0541 366.745Z" fill="#16CABF"/>
<path d="M92.1411 366.663C92.1411 366.663 87.2495 373.586 90.3471 380.693C90.3471 380.693 94.5739 378.663 94.459 369.789L92.1411 366.663Z" fill="#16CABF"/>
<path d="M86.6449 356.225C86.6449 356.225 89.5796 349.883 103.523 357.557C103.523 357.557 102.021 361.793 96.0945 361.853C90.1682 361.913 88.3939 359.344 86.6449 356.225Z" fill="#16CABF"/>
<path d="M85.7573 355.837C85.7573 355.837 78.7747 355.509 79.1616 371.407C79.1616 371.407 83.6185 372.034 86.4027 366.798C89.1868 361.563 87.7126 358.856 85.7573 355.837Z" fill="#16CABF"/>
<path d="M80.899 343.461C80.899 343.461 84.0295 332.413 98.6984 339.169C98.6984 339.169 96.131 349.286 82.5666 347.061L80.899 343.461Z" fill="#16CABF"/>
<path d="M75.4609 327.622C75.4609 327.622 82.0797 316.226 95.7723 325.481C95.7723 325.481 91.8982 336.022 76.8345 331.441L75.4609 327.622Z" fill="#16CABF"/>
<path d="M72.8796 312.372C72.8796 312.372 80.7796 301.783 94.3597 310.938C94.3597 310.938 86.8166 320.272 73.0473 314.929L72.8796 312.372Z" fill="#16CABF"/>
<path d="M70.5479 297.548C70.5479 297.548 78.5294 286.515 91.5469 295.588C91.5469 295.588 82.3657 305.477 70.7093 299.998L70.5479 297.548Z" fill="#16CABF"/>
<path d="M70.4412 284.261C70.4412 284.261 78.6678 270.185 90.8542 278.54C90.8542 278.54 81.8345 290.766 70.6151 286.817L70.4412 284.261Z" fill="#16CABF"/>
<path d="M71.5547 268.651C71.5547 268.651 80.3126 254.656 92.2423 264.173C92.2423 264.173 81.5471 276.511 71.6912 271.132L71.5547 268.651Z" fill="#16CABF"/>
<path d="M73.8298 254.615C73.8298 254.615 84.4628 241.302 94.8068 245.644C94.8068 245.644 83.7484 259.763 73.547 257.984L73.8298 254.615Z" fill="#16CABF"/>
<path d="M76.9614 241.243C76.9614 241.243 89.1836 225 97.202 229.615C97.202 229.615 88.2509 242.167 76.2037 244.199L76.9614 241.243Z" fill="#16CABF"/>
<path d="M81.7318 225.659C81.7318 225.659 92.4711 212.34 101.116 214.893C101.116 214.893 92.0764 228.569 80.4172 229.683L81.7318 225.659Z" fill="#16CABF"/>
<path d="M86.02 211.093C86.02 211.093 98.0156 198.225 103.722 199.965C103.722 199.965 95.3707 213.935 85.6375 213.799L86.02 211.093Z" fill="#16CABF"/>
<path d="M90.2584 197.621C90.2584 197.621 100.323 182.533 106.406 183.255C106.406 183.255 100.58 196.495 90.3578 199.078L90.2584 197.621Z" fill="#16CABF"/>
<path d="M94.6358 179.556C94.6358 179.556 103.637 167.899 108.9 167.576C108.9 167.576 102.199 182.784 94.4717 183.193L94.6358 179.556Z" fill="#16CABF"/>
<path d="M97.1416 167.552L105.016 144.001C105.016 144.001 106.882 164.688 96.252 171.883L97.1416 167.552Z" fill="#16CABF"/>
<path d="M99.2716 142.018C99.2716 142.018 99.5551 122.776 98.4492 121.288C98.4492 121.288 106.238 136.753 99.7743 150.48L99.2716 142.018Z" fill="#16CABF"/>
<path d="M80.4992 343.229C80.4992 343.229 70.3369 337.838 65.0105 353.053C65.0105 353.053 74.0726 358.231 81.8917 346.93L80.4992 343.229Z" fill="#16CABF"/>
<path d="M75.1049 327.028C75.1049 327.028 62.7793 322.367 58.0027 338.195C58.0027 338.195 67.671 343.917 76.4535 330.854L75.1049 327.028Z" fill="#16CABF"/>
<path d="M72.3856 313.328C72.3856 313.328 63.144 303.881 50.9054 314.775C50.9054 314.775 59.6162 323.022 72.5532 315.903L72.3856 313.328Z" fill="#16CABF"/>
<path d="M70.2545 297.573C70.2545 297.573 60.8818 287.688 49.1809 298.413C49.1809 298.413 59.5919 306.998 70.4347 300.016L70.2545 297.573Z" fill="#16CABF"/>
<path d="M70.4661 284.636C70.4661 284.636 63.371 269.966 50.5714 277.335C50.5714 277.335 58.6049 290.231 70.0962 287.18L70.4661 284.636Z" fill="#16CABF"/>
<path d="M72.2862 268.539C72.2862 268.539 65.21 253.599 52.2475 261.612C52.2475 261.612 61.4061 275.121 71.8351 270.951L72.2862 268.539Z" fill="#16CABF"/>
<path d="M75.1239 254.604C75.1239 254.604 71.6054 237.947 60.4097 237.18C60.4097 237.18 63.9528 254.761 73.8473 257.734L75.1239 254.604Z" fill="#16CABF"/>
<path d="M77.2489 241.256C77.2489 241.256 74.9634 221.063 65.7178 220.965C65.7178 220.965 67.0551 236.32 76.4037 244.186L77.2489 241.256Z" fill="#16CABF"/>
<path d="M82.6509 225.016C82.6509 225.016 78.776 208.353 69.8623 206.887C69.8623 206.887 72.0432 223.136 82.0614 229.215L82.6509 225.016Z" fill="#16CABF"/>
<path d="M87.0704 211.144C87.0704 211.144 85.8278 193.601 80.2651 191.38C80.2651 191.38 78.0014 207.49 85.6629 213.493L87.0704 211.144Z" fill="#16CABF"/>
<path d="M90.6583 197.403C90.6583 197.403 88.6969 179.372 82.9717 177.201C82.9717 177.201 82.0277 191.631 89.9013 198.64L90.6583 197.403Z" fill="#16CABF"/>
<path d="M95.5104 180.944C95.5104 180.944 94.4916 166.251 90.2984 163.062C90.2984 163.062 87.4281 179.428 93.6337 184.037L95.5104 180.944Z" fill="#16CABF"/>
<path d="M96.6042 166.858L91.1135 142.645C91.1135 142.645 87.2101 163.042 97.0836 171.258L96.6042 166.858Z" fill="#16CABF"/>
<path d="M95.7584 142.485C95.7584 142.485 84.7442 126.682 84.8325 124.844C84.8325 124.844 87.038 142.019 100.081 149.78L95.7584 142.485Z" fill="#16CABF"/>
<path d="M96.6168 137.555C96.6168 137.555 85.7119 114.808 81.3555 113.175C81.3555 113.175 95.162 119.074 97.3548 136.805L96.6168 137.555Z" fill="#16CABF"/>
<path d="M94.4342 183.312L93.8091 183.156C99.9781 156.911 100.854 140.362 96.2674 136.561L96.6927 136.048C101.529 140.075 100.76 156.423 94.4342 183.312Z" fill="#444053"/>
<path d="M76.7284 244.961L75.7596 244.692C76.442 242.28 77.1807 239.824 77.9694 237.406C84.8551 216.336 90.5773 196.79 94.0908 181.831L94.8849 181.362C91.3651 196.359 85.7989 216.624 78.9258 237.713C78.1433 240.125 77.4046 242.562 76.7284 244.961Z" fill="#444053"/>
<path d="M106.08 385.212C105.942 385.08 92.1954 371.538 81.6411 347.554C75.4571 333.516 71.537 318.587 70.0266 303.322C68.1595 284.242 70.732 262.62 76.3043 242.768L77.1041 243.593C64.5821 288.152 73.1991 325.046 82.8291 346.961C93.2772 370.714 106.868 384.125 107.005 384.256L106.08 385.212Z" fill="#444053"/>
<path d="M121.252 313.843C121.252 313.843 126.253 312.702 129.515 316.065C129.515 316.065 127.408 317.939 122.47 315.856L121.252 313.843Z" fill="#16CABF"/>
<path d="M120.708 313.799C120.708 313.799 117.755 317.985 119.629 322.279C119.629 322.279 122.18 321.031 122.132 315.687L120.708 313.799Z" fill="#16CABF"/>
<path d="M117.385 307.48C117.385 307.48 119.156 303.65 127.574 308.29C127.574 308.29 126.667 310.846 123.085 310.882C119.503 310.918 118.453 309.368 117.385 307.48Z" fill="#16CABF"/>
<path d="M116.847 307.248C116.847 307.248 112.621 307.053 112.855 316.658C112.855 316.658 115.549 317.034 117.232 313.873C118.915 310.711 118.028 309.074 116.847 307.248Z" fill="#16CABF"/>
<path d="M113.894 299.766C113.894 299.766 115.816 293.087 124.666 297.159C124.666 297.159 123.119 303.276 114.918 301.929L113.894 299.766Z" fill="#16CABF"/>
<path d="M110.622 290.191C110.622 290.191 114.62 283.318 122.9 288.896C122.9 288.896 120.553 295.27 111.452 292.497L110.622 290.191Z" fill="#16CABF"/>
<path d="M109.057 280.972C109.057 280.972 113.836 274.569 122.042 280.103C122.042 280.103 117.488 285.725 109.163 282.516L109.057 280.972Z" fill="#16CABF"/>
<path d="M107.648 272.01C107.648 272.01 112.477 265.338 120.345 270.828C120.345 270.828 114.798 276.806 107.748 273.491L107.648 272.01Z" fill="#16CABF"/>
<path d="M107.589 263.973C107.589 263.973 112.594 255.47 119.924 260.516C119.924 260.516 114.47 267.907 107.688 265.511L107.589 263.973Z" fill="#16CABF"/>
<path d="M108.244 254.543C108.244 254.543 113.555 246.077 120.747 251.811C120.747 251.811 114.28 259.27 108.318 256.018L108.244 254.543Z" fill="#16CABF"/>
<path d="M109.635 246.057C109.635 246.057 116.059 238.01 122.315 240.638C122.315 240.638 115.629 249.172 109.478 248.094L109.635 246.057Z" fill="#16CABF"/>
<path d="M111.526 237.971C111.526 237.971 118.913 228.156 123.763 230.939C123.763 230.939 118.353 238.53 111.069 239.758L111.526 237.971Z" fill="#16CABF"/>
<path d="M114.412 228.56C114.412 228.56 120.905 220.508 126.143 222.054C126.143 222.054 120.682 230.319 113.636 230.991L114.412 228.56Z" fill="#16CABF"/>
<path d="M117.004 219.744C117.004 219.744 124.253 211.966 127.703 213.018C127.703 213.018 122.661 221.458 116.772 221.381L117.004 219.744Z" fill="#16CABF"/>
<path d="M119.565 211.602C119.565 211.602 125.651 202.48 129.327 202.907C129.327 202.907 125.81 210.911 119.627 212.477L119.565 211.602Z" fill="#16CABF"/>
<path d="M122.22 200.679C122.22 200.679 127.662 193.632 130.844 193.433C130.844 193.433 126.789 202.631 122.119 202.86L122.22 200.679Z" fill="#16CABF"/>
<path d="M123.73 193.418L128.481 179.196C128.481 179.196 129.601 191.695 123.166 196.067L123.73 193.418Z" fill="#16CABF"/>
<path d="M125.018 177.982C125.018 177.982 125.186 166.352 124.517 165.452C124.517 165.452 129.227 174.797 125.316 183.1L125.018 177.982Z" fill="#16CABF"/>
<path d="M113.662 299.629C113.662 299.629 107.525 296.364 104.283 305.562C104.283 305.562 109.764 308.689 114.493 301.866L113.662 299.629Z" fill="#16CABF"/>
<path d="M110.41 289.803C110.41 289.803 102.953 286.988 100.067 296.554C100.067 296.554 105.911 300.013 111.221 292.122L110.41 289.803Z" fill="#16CABF"/>
<path d="M108.757 281.547C108.757 281.547 103.177 275.839 95.7725 282.416C95.7725 282.416 101.04 287.418 108.863 283.097L108.757 281.547Z" fill="#16CABF"/>
<path d="M107.473 272.022C107.473 272.022 101.806 266.052 94.7326 272.535C94.7326 272.535 101.025 277.719 107.572 273.503L107.473 272.022Z" fill="#16CABF"/>
<path d="M107.602 264.179C107.602 264.179 103.311 255.309 95.5698 259.762C95.5698 259.762 100.43 267.557 107.376 265.717L107.602 264.179Z" fill="#16CABF"/>
<path d="M108.7 254.462C108.7 254.462 104.421 245.43 96.5677 250.276C96.5677 250.276 102.103 258.446 108.412 255.905L108.7 254.462Z" fill="#16CABF"/>
<path d="M110.416 246.057C110.416 246.057 108.289 235.982 101.519 235.523C101.519 235.523 103.659 246.148 109.64 247.944L110.416 246.057Z" fill="#16CABF"/>
<path d="M111.701 237.977C111.701 237.977 110.331 225.771 104.705 225.706C104.705 225.706 105.514 234.993 111.163 239.752L111.701 237.977Z" fill="#16CABF"/>
<path d="M114.962 228.161C114.962 228.161 112.623 218.086 107.234 217.196C107.234 217.196 108.555 227.014 114.611 230.692L114.962 228.161Z" fill="#16CABF"/>
<path d="M117.635 219.775C117.635 219.775 116.871 209.151 113.527 207.824C113.527 207.824 112.154 217.567 116.785 221.193L117.635 219.775Z" fill="#16CABF"/>
<path d="M119.808 211.464C119.808 211.464 118.625 200.565 115.163 199.251C115.163 199.251 114.59 208 119.352 212.214L119.808 211.464Z" fill="#16CABF"/>
<path d="M122.738 201.516C122.738 201.516 122.117 192.636 119.617 190.704C119.617 190.704 117.881 200.602 121.631 203.385L122.738 201.516Z" fill="#16CABF"/>
<path d="M123.417 192.999L120.098 178.361C120.098 178.361 117.736 190.697 123.704 195.661L123.417 192.999Z" fill="#16CABF"/>
<path d="M122.892 178.269C122.892 178.269 116.239 168.723 116.289 167.604C116.289 167.604 117.616 177.985 125.503 182.676L122.892 178.269Z" fill="#16CABF"/>
<path d="M123.394 175.282C123.394 175.282 116.798 161.53 114.167 160.56C114.167 160.56 122.517 164.126 123.838 174.85L123.394 175.282Z" fill="#16CABF"/>
<path d="M122.087 202.941L121.694 202.847C125.451 186.981 125.956 176.976 123.181 174.682L123.438 174.369C126.381 176.808 125.914 186.694 122.087 202.941Z" fill="#444053"/>
<path d="M111.388 240.221L110.8 240.052C111.213 238.596 111.664 237.115 112.14 235.678C116.29 222.937 119.758 211.121 121.882 202.079L122.363 201.791C120.234 210.852 116.871 223.112 112.715 235.865C112.239 237.309 111.795 238.765 111.388 240.221Z" fill="#444053"/>
<path d="M129.13 325.008C129.048 324.927 120.738 316.743 114.355 302.241C110.62 293.754 108.25 284.73 107.334 275.503C106.195 263.966 107.764 250.893 111.138 238.889L111.62 239.39C104.05 266.328 109.26 288.634 115.081 301.886C121.401 316.262 129.611 324.346 129.699 324.427L129.13 325.008Z" fill="#444053"/>
<path d="M147.92 356.264C146.316 356.548 144.744 356.995 143.231 357.599C109.506 371.046 110.03 459.163 110.03 459.163L100.103 459.159C100.103 459.159 96.9936 421.342 83.3955 367.385C71.1453 318.84 121.494 275.359 131.718 267.114C132.869 266.196 133.507 265.709 133.507 265.709C184.19 284.355 147.92 356.264 147.92 356.264Z" fill="#AFC0E0"/>
<path opacity="0.2" d="M137.194 267.242C136.025 266.704 134.819 266.191 133.538 265.722C133.538 265.722 132.912 266.209 131.749 267.127C121.525 275.372 71.1765 318.852 83.4267 367.397C97.0249 421.354 100.103 459.159 100.103 459.159L105.685 459.161C105.685 459.161 102.607 421.344 88.9779 367.387C76.7776 319.067 126.638 275.749 137.194 267.242Z" fill="white"/>
<path d="M315.163 367.498C301.487 421.443 298.395 459.245 298.395 459.245L288.449 459.241C288.449 459.241 289.114 367.149 253.03 356.853C252.248 356.618 251.453 356.432 250.648 356.296C250.648 356.296 214.422 284.355 265.14 265.766C265.14 265.766 265.653 266.148 266.578 266.892C275.97 274.414 327.593 318.401 315.163 367.498Z" fill="#AFC0E0"/>
<path opacity="0.1" d="M147.92 356.264C146.316 356.548 144.745 356.995 143.231 357.599C137.148 327.77 133.299 297.529 131.718 267.127C132.869 266.209 133.507 265.722 133.507 265.722C184.19 284.355 147.92 356.264 147.92 356.264Z" fill="black"/>
<path opacity="0.1" d="M266.596 266.904C264.516 297.216 259.985 327.31 253.048 356.891C252.267 356.656 251.471 356.47 250.667 356.333C250.667 356.333 214.44 284.393 265.159 265.804C265.14 265.779 265.653 266.16 266.596 266.904Z" fill="black"/>
<path d="M247.991 369.944C244.484 383.749 240.375 397.913 235.664 412.434C235.664 412.434 213.324 435.679 159.398 412.401C159.398 412.401 154.016 397.213 148.101 371.394C135.079 314.624 119.479 206.446 152.866 95.3515C162.808 61.9543 176.932 29.9471 194.903 0.0907328C194.903 0.0907328 223.37 32.794 244.247 95.3725C265.125 157.951 278.387 250.417 247.991 369.944Z" fill="#E3E8F4"/>
<path d="M199.336 228.341C224.067 228.352 244.123 208.319 244.134 183.596C244.145 158.873 224.106 138.822 199.375 138.812C174.645 138.801 154.588 158.834 154.578 183.557C154.567 208.28 174.606 228.33 199.336 228.341Z" fill="#AFC0E0"/>
<path d="M231.112 183.615C231.11 189.627 229.399 195.515 226.181 200.593C222.962 205.671 218.367 209.731 212.931 212.301C207.494 214.871 201.439 215.845 195.471 215.109C189.502 214.374 183.865 211.959 179.216 208.147C176.946 206.277 174.945 204.104 173.267 201.688C172.514 200.61 171.83 199.484 171.218 198.319C168.839 193.773 167.599 188.718 167.605 183.588C167.605 183.331 167.606 183.081 167.606 182.831C167.771 176.043 170.108 169.485 174.273 164.12C178.437 158.755 184.211 154.865 190.749 153.019C193.245 152.333 195.813 151.944 198.401 151.86L199.351 151.86C203.522 151.86 207.653 152.681 211.507 154.276C215.361 155.872 218.863 158.211 221.812 161.16C224.762 164.109 227.101 167.61 228.697 171.463C230.293 175.316 231.113 179.445 231.112 183.615Z" fill="#16CABF"/>
<path d="M244.241 95.3725C193.426 119.667 152.835 95.3327 152.835 95.3327C162.788 61.9405 176.923 29.9396 194.904 0.0907333C194.904 0.0907333 223.37 32.794 244.241 95.3725Z" fill="#AFC0E0"/>
<path d="M247.991 369.943C245.612 379.292 242.961 388.8 240.04 398.469C238.654 403.08 237.194 407.729 235.658 412.416C235.658 412.416 213.318 435.66 159.392 412.382C159.392 412.382 157.644 407.451 155.022 398.432C153.062 391.619 150.622 382.488 148.076 371.375C148.076 371.375 168.152 379.952 196.651 379.964C214.257 380.032 231.704 376.627 247.991 369.943Z" fill="#AFC0E0"/>
<path d="M240.04 398.469C238.654 403.08 237.194 407.729 235.658 412.416C235.658 412.416 213.318 435.66 159.392 412.382C159.392 412.382 157.644 407.451 155.022 398.432C155.016 398.432 209.983 414.267 240.04 398.469Z" fill="#E3E8F4"/>
<path opacity="0.2" d="M190.767 152.975L190.699 153.025L167.618 182.788C167.618 183.038 167.618 183.288 167.618 183.544C167.612 188.674 168.851 193.73 171.231 198.275L198.432 151.816L190.767 152.975Z" fill="white"/>
<path opacity="0.2" d="M198.12 179.851L179.216 208.122C176.947 206.252 174.945 204.079 173.268 201.663L195.783 177.525L198.12 179.851Z" fill="white"/>
<path opacity="0.2" d="M171.463 412.394C171.463 412.394 166.081 397.199 160.166 371.386C147.144 314.611 131.544 206.432 164.931 95.338C173.905 65.2783 186.26 36.3327 201.757 9.05541C197.528 3.12284 194.885 0.0969638 194.885 0.0969638C176.911 29.9446 162.782 61.9433 152.834 95.3327C119.448 206.427 135.048 314.605 148.07 371.381C153.985 397.194 159.367 412.389 159.367 412.389C180.673 421.578 197.045 423.51 209.06 422.491C198.796 421.705 186.332 418.806 171.463 412.394Z" fill="white"/>
<path d="M585.769 455.802C585.769 455.802 615.003 419.468 613.081 383.064C612.179 367.802 616.252 352.66 624.69 339.91C628.751 333.879 633.357 328.232 638.45 323.043" stroke="#535461" stroke-width="2" stroke-miterlimit="10"/>
<path d="M637.354 300.119C635.264 305.187 638.381 323.668 638.381 323.668C638.381 323.668 653.62 312.75 655.711 307.683C656.714 305.249 656.709 302.517 655.697 300.087C654.685 297.657 652.749 295.728 650.315 294.725C647.881 293.722 645.148 293.727 642.717 294.739C640.286 295.75 638.357 297.686 637.354 300.119Z" fill="#16CABF"/>
<path d="M610.601 321.943C611.605 327.33 624.27 341.147 624.27 341.147C624.27 341.147 631.155 323.708 630.125 318.314C629.644 315.726 628.154 313.435 625.983 311.945C623.812 310.455 621.137 309.888 618.548 310.369C615.959 310.851 613.667 312.34 612.177 314.511C610.687 316.681 610.12 319.355 610.601 321.943Z" fill="#16CABF"/>
<path d="M591.489 370.193C595.075 374.338 612.989 379.876 612.989 379.876C612.989 379.876 610.097 361.358 606.51 357.207C604.769 355.282 602.344 354.116 599.753 353.957C597.162 353.798 594.613 354.661 592.65 356.359C590.687 358.057 589.468 360.456 589.253 363.042C589.039 365.628 589.846 368.195 591.501 370.193L591.489 370.193Z" fill="#16CABF"/>
<path d="M585.251 409.955C588.081 414.65 604.8 423.132 604.8 423.132C604.8 423.132 605.083 404.383 602.253 399.695C601.579 398.579 600.692 397.607 599.642 396.833C598.592 396.06 597.4 395.501 596.134 395.188C594.869 394.876 593.553 394.815 592.264 395.011C590.975 395.206 589.737 395.653 588.62 396.327C587.504 397.001 586.531 397.888 585.758 398.937C584.984 399.987 584.425 401.178 584.112 402.444C583.799 403.709 583.739 405.024 583.934 406.313C584.13 407.602 584.577 408.839 585.251 409.955Z" fill="#16CABF"/>
<path d="M643.14 350.073C638.05 352.102 619.598 348.782 619.598 348.782C619.598 348.782 630.682 333.67 635.777 331.634C638.223 330.658 640.957 330.694 643.377 331.733C645.797 332.771 647.704 334.729 648.681 337.174C649.657 339.619 649.622 342.352 648.583 344.771C647.543 347.19 645.586 349.097 643.14 350.073Z" fill="#16CABF"/>
<path d="M635.255 396.485C629.791 396.901 613.179 388.213 613.179 388.213C613.179 388.213 628.275 377.102 633.745 376.686C636.339 376.542 638.887 377.421 640.841 379.133C642.795 380.846 644 383.256 644.197 385.846C644.395 388.436 643.57 391.001 641.898 392.989C640.226 394.978 637.841 396.233 635.255 396.485Z" fill="#16CABF"/>
<path d="M621.402 440.537C616.081 441.872 598.242 436.115 598.242 436.115C598.242 436.115 611.245 422.616 616.565 421.287C617.83 420.969 619.144 420.904 620.434 421.094C621.723 421.285 622.963 421.727 624.082 422.397C625.2 423.066 626.176 423.949 626.953 424.995C627.73 426.041 628.294 427.231 628.611 428.495C628.929 429.759 628.994 431.073 628.804 432.362C628.614 433.651 628.171 434.89 627.501 436.009C626.832 437.127 625.949 438.102 624.902 438.879C623.855 439.656 622.666 440.22 621.402 440.537Z" fill="#16CABF"/>
<path opacity="0.25" d="M637.354 300.119C635.264 305.187 638.381 323.668 638.381 323.668C638.381 323.668 653.62 312.75 655.711 307.683C656.714 305.249 656.709 302.517 655.697 300.087C654.685 297.657 652.749 295.728 650.315 294.725C647.881 293.722 645.148 293.727 642.717 294.739C640.286 295.75 638.357 297.686 637.354 300.119Z" fill="black"/>
<path opacity="0.25" d="M610.601 321.943C611.605 327.33 624.27 341.147 624.27 341.147C624.27 341.147 631.155 323.708 630.125 318.314C629.644 315.726 628.154 313.435 625.983 311.945C623.812 310.455 621.137 309.888 618.548 310.369C615.959 310.851 613.667 312.34 612.177 314.511C610.687 316.681 610.12 319.355 610.601 321.943Z" fill="black"/>
<path opacity="0.25" d="M591.489 370.193C595.075 374.338 612.989 379.876 612.989 379.876C612.989 379.876 610.097 361.358 606.51 357.207C604.769 355.282 602.344 354.116 599.753 353.957C597.162 353.798 594.613 354.661 592.65 356.359C590.687 358.057 589.468 360.456 589.253 363.042C589.039 365.628 589.846 368.195 591.501 370.193L591.489 370.193Z" fill="black"/>
<path opacity="0.25" d="M585.251 409.955C588.081 414.65 604.8 423.132 604.8 423.132C604.8 423.132 605.083 404.383 602.253 399.695C601.579 398.579 600.692 397.607 599.642 396.833C598.592 396.06 597.4 395.501 596.134 395.188C594.869 394.876 593.553 394.815 592.264 395.011C590.975 395.206 589.737 395.653 588.62 396.327C587.504 397.001 586.531 397.888 585.758 398.937C584.984 399.987 584.425 401.178 584.112 402.444C583.799 403.709 583.739 405.024 583.934 406.313C584.13 407.602 584.577 408.839 585.251 409.955Z" fill="black"/>
<path opacity="0.25" d="M643.14 350.073C638.05 352.102 619.598 348.782 619.598 348.782C619.598 348.782 630.682 333.67 635.777 331.634C638.223 330.658 640.957 330.694 643.377 331.733C645.797 332.771 647.704 334.729 648.681 337.174C649.657 339.619 649.622 342.352 648.583 344.771C647.543 347.19 645.586 349.097 643.14 350.073Z" fill="black"/>
<path opacity="0.25" d="M635.255 396.485C629.791 396.901 613.179 388.213 613.179 388.213C613.179 388.213 628.275 377.102 633.745 376.686C636.339 376.542 638.887 377.421 640.841 379.133C642.795 380.846 644 383.256 644.197 385.846C644.395 388.436 643.57 391.001 641.898 392.989C640.226 394.978 637.841 396.233 635.255 396.485Z" fill="black"/>
<path opacity="0.25" d="M621.402 440.537C616.081 441.872 598.242 436.115 598.242 436.115C598.242 436.115 611.245 422.616 616.565 421.287C617.83 420.969 619.144 420.904 620.434 421.094C621.723 421.285 622.963 421.727 624.082 422.397C625.2 423.066 626.176 423.949 626.953 424.995C627.73 426.041 628.294 427.231 628.611 428.495C628.929 429.759 628.994 431.073 628.804 432.362C628.614 433.651 628.171 434.89 627.501 436.009C626.832 437.127 625.949 438.102 624.902 438.879C623.855 439.656 622.666 440.22 621.402 440.537Z" fill="black"/>
<path d="M586.032 454.283C586.032 454.283 627.488 432.903 640.486 398.849C645.845 384.528 655.709 372.333 668.595 364.096C674.741 360.23 681.23 356.936 687.978 354.255" stroke="#535461" stroke-width="2" stroke-miterlimit="10"/>
<path d="M696.296 332.842C692.331 336.634 687.69 354.792 687.69 354.792C687.69 354.792 706.046 350.982 710.011 347.197C711.918 345.378 713.025 342.877 713.088 340.243C713.151 337.609 712.164 335.058 710.345 333.151C708.526 331.244 706.024 330.138 703.39 330.075C700.755 330.012 698.203 330.999 696.296 332.817L696.296 332.842Z" fill="#16CABF"/>
<path d="M662.997 341.958C661.745 347.294 667.707 365.083 667.707 365.083C667.707 365.083 681.022 351.921 682.312 346.553C682.911 343.996 682.473 341.306 681.092 339.072C679.711 336.838 677.501 335.242 674.945 334.634C672.39 334.026 669.697 334.456 667.458 335.828C665.218 337.201 663.614 339.405 662.997 341.958Z" fill="#16CABF"/>
<path d="M625.961 378.326C627.559 383.57 641.694 395.887 641.694 395.887C641.694 395.887 646.56 377.766 644.961 372.547C644.582 371.3 643.96 370.14 643.132 369.133C642.304 368.126 641.286 367.291 640.135 366.678C638.985 366.064 637.725 365.683 636.427 365.556C635.129 365.43 633.819 365.56 632.571 365.939C631.324 366.319 630.163 366.94 629.156 367.768C628.148 368.596 627.314 369.614 626.7 370.764C626.086 371.914 625.705 373.174 625.578 374.471C625.452 375.769 625.582 377.079 625.961 378.326Z" fill="#16CABF"/>
<path d="M604.142 412.151C604.827 417.594 616.673 432.117 616.673 432.117C616.673 432.117 624.532 415.103 623.841 409.66C623.51 407.048 622.155 404.675 620.075 403.062C617.994 401.449 615.357 400.728 612.745 401.059C610.133 401.389 607.759 402.743 606.145 404.824C604.532 406.904 603.811 409.539 604.142 412.151Z" fill="#16CABF"/>
<path d="M681.34 380.856C675.858 380.654 660.341 370.142 660.341 370.142C660.341 370.142 676.598 360.818 682.08 361.021C683.383 361.069 684.664 361.374 685.849 361.917C687.034 362.46 688.1 363.232 688.987 364.187C689.874 365.142 690.564 366.263 691.018 367.485C691.471 368.707 691.68 370.006 691.631 371.308C691.583 372.611 691.278 373.891 690.734 375.075C690.191 376.26 689.419 377.326 688.464 378.213C687.508 379.099 686.387 379.789 685.165 380.243C683.943 380.696 682.643 380.905 681.34 380.856Z" fill="#16CABF"/>
<path d="M655.318 420.091C650.149 418.258 638.484 403.585 638.484 403.585C638.484 403.585 656.796 399.55 661.959 401.383C663.188 401.819 664.318 402.493 665.287 403.366C666.255 404.238 667.042 405.293 667.603 406.47C668.163 407.647 668.486 408.923 668.554 410.224C668.621 411.526 668.431 412.828 667.995 414.057C667.559 415.285 666.885 416.416 666.012 417.384C665.139 418.352 664.084 419.138 662.907 419.699C661.73 420.259 660.454 420.582 659.152 420.65C657.849 420.717 656.547 420.527 655.318 420.091Z" fill="#16CABF"/>
<path d="M624.79 454.756C619.389 453.823 605.417 441.33 605.417 441.33C605.417 441.33 622.78 434.263 628.18 435.197C630.775 435.645 633.085 437.106 634.602 439.257C636.119 441.409 636.72 444.074 636.271 446.668C635.822 449.262 634.361 451.571 632.209 453.088C630.057 454.605 627.391 455.205 624.796 454.756L624.79 454.756Z" fill="#16CABF"/>
<path d="M644.972 434.223L612.867 387.632C612.867 387.632 612.247 376.101 610.172 373.407C608.098 370.713 609.726 364.72 609.726 364.72C609.726 364.72 611.978 361.428 610.028 361.127C608.077 360.826 609.731 353.484 609.731 353.484L609.586 341.803C609.586 341.803 611.391 330.555 609.892 327.88C609.453 327.151 609.234 326.311 609.261 325.461C609.288 324.61 609.56 323.786 610.044 323.086C610.044 323.086 611.847 316.644 610.048 315C608.248 313.355 608.703 303.313 609.156 295.376C609.61 287.439 606.005 282.944 606.005 281.745C606.006 280.545 594.133 268.859 594.134 267.816C594.134 266.772 586.635 262.419 582.128 261.217C577.621 260.015 575.371 259.121 575.521 258.521C575.672 257.921 568.465 255.524 568.465 255.524C568.465 255.524 562.158 255.072 559.752 251.921C557.347 248.77 550.008 247.867 549.796 247.836C549.752 247.629 549.702 247.417 549.658 247.211C549.615 247.004 549.565 246.761 549.521 246.536C550.09 245.58 550.616 244.605 551.091 243.599C551.235 243.293 551.373 242.974 551.504 242.687C554.136 242.569 556.837 242.008 558.901 240.397C559.961 239.511 560.828 238.416 561.446 237.181C562.065 235.946 562.423 234.597 562.498 233.217C562.627 230.449 562.022 227.696 560.745 225.236C559.434 222.536 557.503 219.741 558.167 216.817C558.461 215.567 559.218 214.443 559.606 213.205C560.339 210.862 559.665 208.287 558.528 206.112C557.391 203.937 555.811 202.024 554.549 199.917C552.937 197.232 551.862 194.261 551.383 191.166C551.128 189.541 551.028 187.829 550.21 186.398C549.532 185.335 548.635 184.429 547.579 183.74C542.884 180.38 537.212 178.658 531.44 178.84C527.352 178.982 523.276 180.086 519.219 179.578C516.775 179.277 514.443 178.408 512.081 177.7C507.043 176.211 501.236 175.596 496.846 178.475C492.456 181.354 490.71 187.022 487.738 191.451C485.111 195.375 481.259 198.66 479.257 202.809C479.257 202.734 479.294 202.653 479.319 202.572C478.827 203.532 478.451 204.547 478.199 205.596C477.435 208.858 478.071 212.27 478.864 215.526C479.269 217.208 479.831 219.033 481.287 219.965C482.743 220.896 484.806 220.691 486.531 220.998C486.469 221.279 486.394 221.567 486.331 221.854C484.541 230.292 485.995 239.094 490.404 246.508C494.814 253.922 501.855 259.403 510.125 261.861C510.125 262.167 510.125 262.486 510.125 262.773C510.121 263.634 510.068 264.493 509.967 265.348C509.967 265.348 494.872 262.217 490.814 264.34C486.755 266.463 478.797 268.084 477.596 269.271C476.395 270.458 473.395 269.569 470.716 276.611C468.038 283.653 467.71 290.834 464.251 294.107C460.793 297.38 458.998 299.648 458.847 302.047C458.696 304.447 459.295 305.041 457.939 305.797C456.582 306.552 454.636 309.689 455.236 310.889C455.236 310.889 455.985 313.883 453.584 315.375C451.182 316.868 451.475 319.868 451.475 319.868C451.475 319.868 450.573 323.167 448.472 323.91C446.372 324.653 445.013 329.602 445.013 329.602L438.177 337.442L424.687 322.5C423.677 321.38 422.263 320.707 420.757 320.629C419.25 320.551 417.775 321.074 416.654 322.084L410.025 328.055C407.467 328.674 405.155 330.05 403.391 332.002C401.946 333.484 400.782 335.215 399.957 337.113L396.323 340.373C395.181 341.788 394.483 343.508 394.316 345.319C394.15 347.129 394.522 348.948 395.387 350.547L404.029 360.106L404.085 360.187C400.815 360.598 397.927 361.647 395.719 363.59C382.805 374.964 382.644 385.457 384.599 390.239C386.553 395.02 402.905 413.463 402.905 413.463C402.905 413.463 412.408 425.823 426.133 432.403L426.027 432.509C425.758 432.796 425.489 433.134 425.226 433.446L425.001 433.734L424.795 434.021L424.551 434.383C424.482 434.477 424.419 434.577 424.357 434.677C424.294 434.777 424.182 434.958 424.1 435.108L423.931 435.395C423.831 435.583 423.725 435.777 423.625 435.977L423.525 436.17C423.4 436.433 423.274 436.701 423.155 436.982C423.112 437.082 423.074 437.189 423.03 437.289C422.955 437.482 422.874 437.682 422.799 437.913C422.724 438.145 422.705 438.17 422.661 438.301C422.617 438.432 422.53 438.688 422.467 438.888C422.404 439.088 422.379 439.169 422.342 439.307C422.304 439.444 422.217 439.744 422.16 439.969C422.104 440.194 422.091 440.232 422.054 440.375C421.972 440.719 421.891 441.075 421.822 441.45C421.822 441.588 421.772 441.731 421.747 441.875C421.697 442.125 421.653 442.381 421.615 442.644C421.584 442.825 421.565 443.006 421.54 443.187C421.515 443.369 421.477 443.681 421.446 443.931L421.389 444.506C421.389 444.781 421.339 445.068 421.32 445.356C421.32 445.531 421.32 445.706 421.289 445.881C421.288 446.356 421.238 446.831 421.232 447.331C420.924 464.829 421.948 467.398 421.948 467.398C421.948 467.398 424.065 472.98 429.916 473.382C430.775 473.445 431.638 473.4 432.485 473.246C440.294 471.899 458.612 468.764 465.069 469.967C468.95 470.687 476.14 469.628 481.26 468.661L482.604 468.406L483.541 471.381L486.51 470.57L489.01 472.027L490.604 472.94C493.563 482.99 505.604 479.571 505.604 479.571L508.429 481.209L537.41 481.972C537.41 481.972 543.66 485.724 547.666 486.901C548.143 487.045 548.63 487.152 549.123 487.22C551.809 487.437 554.506 487.488 557.199 487.374C559.418 487.319 561.138 487.226 561.138 487.226C561.138 487.226 560.847 479.357 560.426 470.552C571.503 470.094 581.325 469.405 587.27 468.364C602.75 465.652 609.213 451.587 611.592 444.07C612.305 447.143 612.811 450.261 613.107 453.401C613.737 456.145 614.539 458.846 615.51 461.489C616.355 463.615 617.463 465.627 618.808 467.477C630.225 463.589 623.32 457.749 620.914 455.198C618.508 452.647 622.573 450.556 622.573 450.556C622.573 450.556 625.699 448.463 625.425 446.513C625.151 444.563 624.977 442.47 635.185 442.624C645.393 442.779 644.972 434.223 644.972 434.223ZM486.443 338.537C486.574 339.394 487.995 348.625 489.282 351.038C489.55 351.55 489.656 353.369 489.617 355.969C483.566 355.485 477.265 355.226 477.265 355.226C477.446 355.445 477.559 355.712 477.59 355.995L476.64 355.782L475.258 355.444L486.412 338.5L486.443 338.537ZM464.348 373.65L474.818 375.317L475.7 375.455C475.399 377.087 475.216 378.739 475.154 380.398C475.153 380.554 475.391 380.741 475.728 380.96C475.582 381.785 475.512 382.622 475.521 383.46C475.689 384.291 480.583 386.081 486.196 387.571C486.121 387.87 486.046 388.158 485.971 388.427C481.015 385.818 473.201 384.596 472.302 382.659C471.403 380.721 444.801 371.398 444.801 371.398C444.801 371.398 443.832 370.885 442.157 370.072L449.158 371.4L451.084 371.207C455.448 372.3 459.879 373.112 464.348 373.637L464.348 373.65Z" fill="url(#paint0_linear_2292_572)"/>
<path d="M610.787 440.726C610.787 440.726 606.613 465.866 585.476 469.575C564.338 473.285 493.793 472.51 493.793 472.51C493.793 472.51 453.462 466.693 438.892 432.615C424.323 398.536 414.951 384.99 427.454 384.402C439.957 383.813 507.368 407.203 511.212 407.498C515.056 407.794 614.544 355.767 610.787 440.726Z" fill="#434175"/>
<path opacity="0.99" d="M610.787 440.726C610.787 440.726 606.613 465.866 585.476 469.575C564.338 473.285 493.793 472.51 493.793 472.51C493.793 472.51 453.462 466.693 438.892 432.615C424.323 398.536 414.951 384.99 427.454 384.402C439.957 383.813 507.368 407.203 511.212 407.498C515.056 407.794 614.544 355.767 610.787 440.726Z" fill="#263238"/>
<path d="M421.585 468.61C421.585 468.61 423.689 474.161 429.484 474.557C430.335 474.617 431.189 474.571 432.029 474.421C439.768 473.087 457.93 469.97 464.324 471.16C468.175 471.88 475.296 470.821 480.366 469.867C483.742 469.243 486.205 468.62 486.205 468.62C486.205 468.62 480.262 448.831 479.512 448.237C478.763 447.643 452.733 432.008 452.733 432.008L432.104 430.518L432.041 430.518C432.041 430.518 428.222 430.773 425.051 434.621C422.868 437.251 420.997 441.575 420.869 448.662C420.574 466.079 421.585 468.61 421.585 468.61Z" fill="#16CABF"/>
<path opacity="0.05" d="M421.585 468.61C421.585 468.61 423.69 474.161 429.484 474.557C427.452 471.943 425.575 469.213 423.862 466.38L423.974 451.95C423.06 441.145 428.12 434.229 432.11 430.537L432.048 430.537C432.048 430.537 421.183 431.27 420.875 448.655C420.567 466.041 421.585 468.61 421.585 468.61Z" fill="black"/>
<path opacity="0.1" d="M511.074 437.108L530.278 422.118L560.504 392.371C560.504 392.371 557.241 392.214 552.321 391.999C551.07 392.78 547.662 395.234 547.536 398.246C547.384 401.883 539.366 398.493 535.201 400.572C531.037 402.651 510.634 428.734 507.058 428.564C503.482 428.393 500.664 426.748 499.169 429.279C499.169 429.335 499.1 429.385 499.062 429.441L511.074 437.108Z" fill="black"/>
<path opacity="0.1" d="M425.057 434.634C425.738 434.965 426.426 435.259 427.132 435.584C441.72 441.84 459.718 454.972 461.061 457.322C461.873 458.772 472.31 465.114 480.366 469.867C483.742 469.243 486.205 468.62 486.205 468.62C486.205 468.62 480.262 448.831 479.512 448.237C478.762 447.643 452.733 432.008 452.733 432.008L432.104 430.518L432.041 430.518C432.041 430.518 428.228 430.785 425.057 434.634Z" fill="black"/>
<path d="M384.592 391.97C386.521 396.733 402.71 415.044 402.71 415.044C402.71 415.044 412.969 428.435 427.557 434.691C442.145 440.947 460.143 454.078 461.48 456.429C462.342 457.96 473.979 464.965 482.153 469.78L483.985 470.85L488.047 473.208L490.197 474.458C490.197 474.458 495.2 470.461 500.146 466.438C505.093 462.416 509.92 458.475 510.002 458.25C510.146 457.806 512.08 452.745 511.636 452.451C511.405 452.295 510.387 450.232 508.512 447.844C506.512 445.193 503.915 443.051 500.932 441.591C494.057 438.463 491.116 431.35 491.116 431.35C491.116 431.35 490.491 430.875 489.472 430.249C487.71 429.136 484.879 427.535 482.785 427.266C479.503 426.852 473.411 420.156 473.411 420.156C473.411 420.156 469.242 417.473 467.606 414.054C466.044 410.791 442.971 394.932 440.834 393.469L496.774 429.415L510.161 438.027L529.365 423.036L559.597 393.29C559.597 393.29 555.533 393.088 549.595 392.835C534.911 392.204 508.831 391.186 505.536 391.929C502.854 392.552 500.087 392.73 497.346 392.456C497.346 392.456 489.92 392.79 485.007 390.195C480.095 387.599 472.35 386.383 471.457 384.464C470.564 382.545 444.225 373.297 444.225 373.297C444.225 373.297 408.369 354.24 395.562 365.546C382.754 376.852 382.656 387.213 384.592 391.97Z" fill="#263238"/>
<path d="M500.276 282.817L504.883 298.143L510.819 332.661L532.698 334.158L539.035 323.662L545.385 313.184C545.385 313.184 549.329 299.237 552.167 285.746C554.673 273.81 556.316 262.225 553.591 260.967C551.178 259.848 549.592 255.829 548.594 251.504C548.463 250.972 548.344 250.429 548.232 249.885C547.504 246.223 547.021 242.517 546.786 238.791C546.786 238.791 500.947 236.397 507.34 255.291C508.481 258.519 509.063 261.918 509.061 265.341C509.054 266.196 509.001 267.049 508.903 267.897C508.576 270.846 507.641 273.694 506.156 276.262C504.671 278.83 502.669 281.062 500.276 282.817Z" fill="#EE8E9E"/>
<path d="M490.75 280.282L492.377 306.318L496.087 328.486L500.252 338.756L503.947 394.928C503.947 394.928 539.834 399.093 548.563 394.872C549.192 394.604 549.738 394.173 550.145 393.623C560.692 377.735 557.255 331.638 557.255 331.638L561.287 301.873L558.612 286.424L552.142 285.733L547.141 285.2C547.141 285.2 546.016 286.587 544.389 288.73C539.973 294.552 531.879 306.004 532.396 310.785C533.131 317.335 531.496 324.027 528.964 325.07C526.432 326.112 524.349 327.892 523.906 326.111C523.463 324.33 523.013 323.88 523.458 321.349C523.903 318.818 521.525 311.08 521.525 311.08C521.525 311.08 517.515 302.004 517.78 298.136C518.044 294.268 517.339 289.799 516.146 288.761C514.952 287.723 513.321 286.673 514.661 281.886C516.001 277.1 508.797 267.854 508.797 267.854L490.75 280.282Z" fill="#E3E8F4"/>
<path opacity="0.1" d="M538.126 345.328L539.594 389.819L548.188 394.584C548.817 394.316 549.363 393.885 549.77 393.335C560.323 377.422 556.886 331.331 556.886 331.331L560.918 301.573L558.243 286.13L551.767 285.439C554.273 273.504 555.916 261.918 553.197 260.661C550.778 259.541 549.192 255.522 548.162 251.197L543.523 282.692C543.523 282.692 543.909 285.53 544.045 288.455C544.151 290.629 544.112 292.829 543.668 293.998C542.623 296.678 543.365 301.441 543.365 301.441C540.681 306.164 539.339 314.919 538.679 323.374C537.793 334.616 538.126 345.328 538.126 345.328Z" fill="black"/>
<path d="M548.307 250.51C548.307 250.51 555.808 251.444 558.182 254.57C560.556 257.696 566.813 258.13 566.813 258.13C566.813 258.13 573.958 260.514 573.807 261.107C573.657 261.701 575.888 262.602 580.358 263.791C584.827 264.981 592.233 269.302 592.232 270.346C592.232 271.39 603.985 282.994 603.985 284.187C603.984 285.381 607.558 289.813 607.105 297.725C606.651 305.637 606.203 315.579 607.99 317.217C609.777 318.856 607.987 325.254 607.987 325.254C607.512 325.954 607.251 326.776 607.234 327.621C607.217 328.466 607.445 329.298 607.891 330.016C609.377 332.698 607.591 343.859 607.591 343.859L607.73 355.464C607.73 355.464 606.089 362.75 608.026 363.051C609.964 363.352 607.725 366.619 607.725 366.619C607.725 366.619 606.084 372.574 608.171 375.25C610.258 377.925 610.841 389.387 610.841 389.387L642.702 435.647C642.702 435.647 643.149 444.128 633.028 443.973C622.907 443.819 623.025 445.906 623.349 447.837C623.673 449.769 620.522 451.855 620.522 451.855C620.522 451.855 616.501 453.934 618.882 456.466C621.262 458.998 628.105 464.8 616.795 468.664C615.457 466.826 614.358 464.827 613.522 462.713C612.563 460.088 611.769 457.405 611.143 454.682C611.143 454.682 610.104 443.37 608.023 441.881C605.942 440.393 606.239 433.25 606.239 433.25C606.239 433.25 609.217 427.452 605.055 425.069C600.893 422.686 540.413 389.213 540.413 389.213L538.945 344.722C538.945 344.722 537.915 311.844 544.171 300.835C544.171 300.835 543.43 296.072 544.475 293.398C545.52 290.724 544.329 282.087 544.329 282.087L548.307 250.51Z" fill="#16CABF"/>
<path opacity="0.1" d="M509.291 268.341C509.291 268.341 494.333 265.254 490.312 267.333C486.292 269.412 478.433 271.078 477.182 272.239C475.932 273.401 473.013 272.538 470.334 279.529C467.655 286.521 467.346 293.658 463.925 296.931C460.504 300.205 458.715 302.435 458.564 304.816C458.413 307.197 459.007 307.791 457.669 308.565C456.331 309.34 454.391 312.432 454.985 313.626C455.578 314.82 485.986 340.981 485.986 340.981C485.986 340.981 487.475 350.981 488.812 353.481C490.149 355.981 487.308 390.827 484.331 393.207C481.355 395.586 504.422 395.378 504.422 395.378C504.422 395.378 505.47 372.537 506.364 371.343C507.259 370.15 505.75 345.72 505.75 345.72C505.75 345.72 505.609 324.891 507.55 319.386C509.49 313.881 509.279 295.601 509.279 295.601C509.279 295.601 510.997 284.622 513.079 282.06C515.162 279.499 509.291 268.341 509.291 268.341Z" fill="black"/>
<path d="M508.847 267.897C508.847 267.897 493.883 264.81 489.862 266.889C485.842 268.968 477.983 270.602 476.764 271.796C475.544 272.989 472.6 272.087 469.884 279.079C467.168 286.071 466.902 293.214 463.475 296.488C460.048 299.761 458.265 301.991 458.114 304.372C457.963 306.753 458.563 307.347 457.225 308.09C455.887 308.833 453.948 311.957 454.541 313.145C455.134 314.332 485.486 340.537 485.486 340.537C485.486 340.537 486.969 350.537 488.306 353.037C489.642 355.537 486.802 390.377 483.825 392.757C480.848 395.136 503.916 394.928 503.916 394.928C503.916 394.928 504.97 372.086 505.864 370.899C506.759 369.712 505.25 345.276 505.25 345.276C505.25 345.276 505.115 324.447 507.049 318.942C508.983 313.437 508.779 295.132 508.779 295.132C508.779 295.132 510.497 284.153 512.573 281.598C514.65 279.043 508.847 267.897 508.847 267.897Z" fill="#16CABF"/>
<path opacity="0.1" d="M507.277 255.291C508.418 258.519 509 261.918 508.998 265.341C516.316 267.512 524.15 267.169 531.25 264.367C538.351 261.566 544.307 256.467 548.169 249.885C547.442 246.223 546.959 242.517 546.724 238.791C546.724 238.791 500.89 236.397 507.277 255.291Z" fill="black"/>
<path d="M484.67 231.771C484.674 240.499 488.028 248.893 494.041 255.221C500.054 261.549 508.266 265.329 516.985 265.782C525.704 266.235 534.264 263.325 540.9 257.653C547.536 251.982 551.741 243.981 552.65 235.3C553.558 226.619 551.099 217.921 545.781 211C540.462 204.078 532.69 199.461 524.066 198.1C515.442 196.74 506.625 198.739 499.432 203.687C492.24 208.635 487.221 216.153 485.411 224.691C484.917 227.019 484.669 229.392 484.67 231.771Z" fill="#EE8E9E"/>
<path d="M462.756 310.617L454.572 313.145C454.572 313.145 455.315 316.12 452.932 317.606C450.55 319.092 450.849 322.074 450.849 322.074C450.849 322.074 449.953 325.342 447.871 326.084C445.789 326.827 444.443 331.707 444.443 331.707L437.595 339.591C437.595 339.591 435.062 341.671 435.512 342.715C435.961 343.759 432.829 344.051 432.829 344.051L434.456 370.562L448.595 373.249L457.347 372.359L464.493 369.682L470.746 365.935L473.6 358.705L486.111 339.669L462.756 310.617Z" fill="#16CABF"/>
<path d="M434.91 346.189C434.91 346.189 416.793 319.99 403.215 334.12C389.637 348.251 408.706 371.17 413.17 370.428C417.634 369.686 438.92 368.508 438.92 368.508L434.91 346.189Z" fill="#EE8E9E"/>
<path d="M414.171 327.931L397.369 343.068C394.133 345.984 393.873 350.971 396.79 354.207L415.438 374.893C418.355 378.129 423.344 378.388 426.58 375.472L443.382 360.335C446.618 357.419 446.878 352.432 443.961 349.197L425.312 328.51C422.396 325.275 417.407 325.015 414.171 327.931Z" fill="#30374E"/>
<path opacity="0.1" d="M414.171 327.931L397.369 343.068C394.133 345.984 393.873 350.971 396.79 354.207L415.438 374.893C418.355 378.129 423.344 378.388 426.58 375.472L443.382 360.335C446.618 357.419 446.878 352.432 443.961 349.197L425.312 328.51C422.396 325.275 417.407 325.015 414.171 327.931Z" fill="black"/>
<path d="M414.683 325.775L397.882 340.912C394.645 343.828 394.386 348.814 397.303 352.05L415.951 372.737C418.868 375.972 423.857 376.232 427.093 373.316L443.894 358.179C447.131 355.263 447.39 350.276 444.473 347.04L425.825 326.354C422.908 323.118 417.92 322.859 414.683 325.775Z" fill="#30374E"/>
<path d="M420.407 359.101C425.092 359.103 428.892 355.308 428.894 350.624C428.896 345.94 425.1 342.142 420.415 342.14C415.73 342.138 411.93 345.933 411.928 350.616C411.926 355.3 415.722 359.099 420.407 359.101Z" fill="#16CABF"/>
<path opacity="0.1" d="M420.407 359.101C425.092 359.103 428.892 355.308 428.894 350.624C428.896 345.94 425.1 342.142 420.415 342.14C415.73 342.138 411.93 345.933 411.928 350.616C411.926 355.3 415.722 359.099 420.407 359.101Z" fill="black"/>
<path d="M420.883 358.026C425.568 358.028 429.368 354.233 429.37 349.549C429.372 344.866 425.575 341.067 420.89 341.065C416.205 341.063 412.406 344.858 412.404 349.542C412.401 354.226 416.198 358.024 420.883 358.026Z" fill="#16CABF"/>
<path d="M423.155 351.665C422.997 371.307 463.628 375.487 463.628 375.487L474.005 377.141L478.655 377.881L480.602 358.708C480.602 358.708 478.47 358.388 475.807 357.769C471.876 356.848 466.781 355.265 465.713 353.046C463.933 349.327 423.307 332.029 423.155 351.665Z" fill="#EE8E9E"/>
<path opacity="0.1" d="M485.411 224.691C486.348 224.76 487.232 225.154 487.911 225.804C489.06 227.024 489.122 229.186 490.616 229.937C491.174 230.18 491.792 230.252 492.391 230.144C496.348 229.583 498.644 225.147 502.44 223.898C504.603 223.199 506.984 223.657 509.097 224.47C509.947 224.737 510.709 225.227 511.303 225.89C512.553 227.534 511.683 229.952 512.269 231.946C513.087 234.708 516.387 235.81 519.244 236.173C522.101 236.537 525.32 236.739 527.226 238.895C528.575 240.427 528.918 242.646 528.642 244.652C528.473 245.352 528.473 246.082 528.641 246.783C529.428 249.014 533.292 248.66 534.299 246.923C535.037 245.642 534.812 244.579 536.55 244.224C537.726 243.981 539.107 244.475 540.195 244.851C543.224 245.897 546.417 246.389 549.621 246.304C551.649 241.958 552.736 237.233 552.812 232.439C552.888 227.644 551.95 222.887 550.061 218.479C548.172 214.071 545.373 210.111 541.848 206.858C538.324 203.606 534.152 201.133 529.605 199.603C525.059 198.073 520.241 197.519 515.466 197.978C510.691 198.437 506.067 199.898 501.895 202.266C497.724 204.634 494.1 207.855 491.259 211.719C488.418 215.584 486.425 220.004 485.411 224.691Z" fill="black"/>
<path d="M528.623 245.883C528.455 245.182 528.455 244.452 528.624 243.752C528.894 241.733 528.557 239.521 527.207 237.995C525.333 235.839 522.082 235.631 519.226 235.273C516.369 234.916 513.069 233.815 512.251 231.052C511.664 229.058 512.553 226.634 511.285 224.99C510.694 224.327 509.933 223.838 509.085 223.576C506.966 222.757 504.584 222.324 502.421 222.998C498.626 224.247 496.33 228.695 492.373 229.244C491.773 229.352 491.156 229.28 490.597 229.037C489.104 228.286 489.042 226.124 487.892 224.911C486.086 222.998 482.654 224.227 480.442 222.808C478.998 221.876 478.442 220.07 478.043 218.401C477.257 215.163 476.627 211.77 477.385 208.533C478.681 202.996 483.64 199.205 486.768 194.482C489.714 190.077 491.367 184.485 495.794 181.587C500.221 178.689 505.903 179.335 510.891 180.818C513.229 181.513 515.542 182.377 517.961 182.696C521.986 183.192 526.025 182.075 530.076 181.964C535.798 181.782 541.42 183.491 546.071 186.827C547.119 187.514 548.009 188.415 548.683 189.472C549.489 190.897 549.594 192.597 549.837 194.209C550.309 197.285 551.369 200.241 552.959 202.916C554.209 205.01 555.777 206.911 556.907 209.073C558.038 211.236 558.7 213.793 557.973 216.117C557.591 217.367 556.835 218.448 556.553 219.704C555.889 222.609 557.801 225.385 559.106 228.066C560.37 230.512 560.968 233.248 560.84 235.998C560.767 237.367 560.412 238.706 559.798 239.933C559.185 241.159 558.326 242.246 557.274 243.127C555.167 244.776 552.397 245.325 549.728 245.411C546.461 245.52 543.203 245.029 540.114 243.963C539.02 243.588 537.614 243.093 536.47 243.336C534.731 243.692 534.956 244.754 534.218 246.035C533.267 247.785 529.41 248.114 528.623 245.883Z" fill="#263238"/>
<path opacity="0.1" d="M510.18 438.002L529.384 423.011L559.616 393.265C559.616 393.265 555.553 393.063 549.614 392.81C548.532 393.91 547.569 395.309 547.505 396.871C547.354 400.509 539.335 397.124 535.171 399.203C531.006 401.283 510.603 427.359 507.028 427.189C503.452 427.018 500.633 425.374 499.138 427.904C499.106 427.962 499.071 428.019 499.032 428.073C498.437 428.75 497.642 429.221 496.762 429.415L510.18 438.002Z" fill="black"/>
<path d="M471.485 436.941L481.117 467.73L482.628 472.568L487.223 471.32L497.351 468.543L542.466 456.176C542.466 456.176 550.943 456.068 558.721 451.853C567.319 447.182 577.016 444.836 586.755 445.753C592.719 446.312 599.352 443.746 604.889 433.587C604.889 433.587 617.408 396.721 585.856 386.083C554.304 375.445 552.796 391.693 552.796 391.693C552.796 391.693 552.634 391.78 552.371 391.955C551.121 392.736 547.713 395.19 547.586 398.203C547.435 401.84 539.416 398.449 535.251 400.528C531.087 402.607 510.684 428.69 507.108 428.52C503.533 428.349 500.714 426.705 499.219 429.235C499.219 429.291 499.15 429.341 499.112 429.397C498.012 430.916 494.698 431.27 492.504 431.326C491.31 431.363 490.441 431.325 490.441 431.325L490.16 431.412L487.821 432.061L471.485 436.941Z" fill="#263238"/>
<path opacity="0.1" d="M474.005 377.141L478.655 377.881L480.602 358.708C480.602 358.708 478.47 358.389 475.807 357.769C476.513 360.425 474.908 370.78 474.005 377.141Z" fill="black"/>
<path opacity="0.1" d="M595.744 287.515C595.744 287.515 609.586 283.502 606.144 322.785C602.701 362.067 577.097 386.873 577.097 386.873C577.097 386.873 547.623 399.802 534.377 397.716C521.132 395.629 511.461 395.206 511.461 395.206C507.293 393.097 502.731 391.88 498.066 391.632C490.621 391.328 475.001 386.709 474.701 385.222C474.402 383.734 478.581 361.863 476.794 360.225C476.794 360.225 497.629 361.09 499.716 362.597C501.804 364.104 504.774 363.025 507.005 362.601C509.237 362.177 516.091 356.224 529.629 361.442C529.629 361.442 534.243 361.887 536.031 360.701C537.82 359.514 540.682 360.403 540.682 360.403C540.682 360.403 543.49 359.36 543.921 358.736C544.353 358.111 547.934 358.737 547.934 358.737C548.147 358.841 548.38 358.896 548.617 358.899C548.854 358.901 549.088 358.85 549.303 358.75C549.517 358.65 549.707 358.504 549.857 358.321C550.008 358.138 550.116 357.924 550.173 357.695C550.641 356.477 551.349 355.366 552.256 354.427C552.256 354.427 556.285 331.812 563.878 323.335C563.878 323.335 566.111 321.399 565.518 319.017C564.925 316.636 577.905 282.738 595.744 287.515Z" fill="black"/>
<path d="M595.408 284.49C595.408 284.49 609.25 280.477 605.813 319.76C602.377 359.042 576.729 383.873 576.729 383.873C576.729 383.873 547.255 396.803 534.009 394.716C520.764 392.629 511.093 392.175 511.093 392.175C506.926 390.065 502.363 388.847 497.698 388.6C490.259 388.297 474.633 383.678 474.334 382.191C474.034 380.703 478.213 358.832 476.432 357.194C476.432 357.194 497.268 358.059 499.349 359.566C501.43 361.073 504.412 359.993 506.644 359.569C508.876 359.145 515.724 353.199 529.268 358.411C529.268 358.411 533.881 358.856 535.663 357.67C537.446 356.483 540.321 357.372 540.321 357.372C540.321 357.372 543.109 356.329 543.553 355.736C543.998 355.142 547.573 355.738 547.573 355.738C547.785 355.842 548.017 355.897 548.253 355.9C548.489 355.902 548.723 355.852 548.937 355.753C549.151 355.653 549.34 355.507 549.49 355.325C549.64 355.143 549.748 354.93 549.805 354.701C550.272 353.481 550.981 352.367 551.888 351.427C551.888 351.427 555.918 328.812 563.511 320.335C563.511 320.335 565.743 318.399 565.15 316.024C564.557 313.649 577.519 279.72 595.408 284.49Z" fill="#16CABF"/>
<path opacity="0.1" d="M487.821 432.061L507.465 455.818C507.54 455.749 507.59 455.699 507.59 455.68C507.74 455.23 509.674 450.175 509.23 449.875C508.787 449.575 505.364 442.137 498.52 439.009C494.339 437.132 491.602 433.7 490.109 431.35L487.821 432.061Z" fill="black"/>
<path opacity="0.1" d="M488.072 473.208L490.222 474.458C490.222 474.458 495.225 470.461 500.171 466.438C505.118 462.416 509.945 458.475 510.027 458.25C510.171 457.806 512.105 452.745 511.661 452.451C511.43 452.295 510.412 450.232 508.537 447.844C495.211 444.088 503.69 453.36 504.821 453.785C504.821 453.785 488.57 450.029 487.699 467.72C487.581 469.558 487.706 471.403 488.072 473.208Z" fill="black"/>
<path d="M504.503 480.701L507.335 482.34L536.09 483.096C536.09 483.096 542.252 486.849 546.253 487.988C546.724 488.135 547.207 488.242 547.697 488.307C550.358 488.524 553.031 488.575 555.698 488.461C557.899 488.405 559.605 488.312 559.605 488.312C559.605 488.312 558.258 452.065 557.235 448.315C556.748 446.49 554.341 446.889 551.965 447.8C550.18 448.523 548.459 449.394 546.819 450.404C546.819 450.404 534.616 451.58 532.678 452.629C530.739 453.678 525.239 452.001 521.813 452.624C518.387 453.247 512.294 448.589 512.294 448.589C495.624 443.082 504.997 453.348 506.184 453.798C506.184 453.798 489.97 450.042 489.068 467.733C488.167 485.425 504.503 480.701 504.503 480.701Z" fill="#16CABF"/>
<path d="M546.037 466.733C546.346 474.233 552.187 483.541 555.667 488.461C557.868 488.405 559.574 488.312 559.574 488.312C559.574 488.312 558.227 452.065 557.204 448.315C556.717 446.49 554.31 446.889 551.934 447.8C549.075 453.173 545.79 460.69 546.037 466.733Z" fill="#16CABF"/>
<path opacity="0.1" d="M546.037 466.733C546.346 474.233 552.187 483.541 555.667 488.461C557.868 488.405 559.574 488.312 559.574 488.312C559.574 488.312 558.227 452.065 557.204 448.315C556.717 446.49 554.31 446.889 551.934 447.8C549.075 453.173 545.79 460.69 546.037 466.733Z" fill="black"/>
<path opacity="0.05" d="M541.123 467.725C543.096 474.963 543.073 483.081 546.222 487.988C546.693 488.135 547.176 488.242 547.666 488.307C550.327 488.524 553 488.575 555.667 488.461C557.868 488.405 559.575 488.312 559.575 488.312C559.575 488.312 558.227 452.065 557.204 448.315C556.717 446.49 554.31 446.889 551.934 447.8C550.149 448.523 548.428 449.394 546.788 450.404C546.788 450.404 538.602 458.462 541.123 467.725Z" fill="black"/>
<path opacity="0.1" d="M442.059 394.276C442.059 394.276 456.323 398.913 468.405 415.367L442.059 394.276Z" fill="black"/>
<g opacity="0.1">
<path d="M558.074 215.792C558.05 215.898 558.021 216.002 557.986 216.105C557.849 216.532 557.684 216.949 557.492 217.354C557.639 216.817 557.833 216.294 558.074 215.792Z" fill="black"/>
<path d="M477.36 208.539C477.608 207.496 477.979 206.487 478.467 205.533C478.392 205.79 478.311 206.046 478.248 206.308C477.491 209.545 478.12 212.939 478.907 216.176C479.312 217.845 479.862 219.651 481.305 220.583C483.524 222.003 486.931 220.767 488.756 222.68C489.906 223.899 489.967 226.062 491.467 226.812C492.025 227.056 492.643 227.128 493.243 227.019C497.194 226.458 499.496 222.022 503.291 220.774C505.454 220.075 507.83 220.532 509.948 221.352C510.797 221.614 511.557 222.103 512.148 222.765C513.398 224.409 512.528 226.834 513.115 228.821C513.932 231.584 517.233 232.685 520.089 233.043C522.946 233.4 526.165 233.608 528.071 235.771C529.421 237.296 529.763 239.521 529.488 241.527C529.322 242.228 529.321 242.958 529.487 243.658C530.273 245.89 534.137 245.535 535.113 243.798C535.851 242.518 535.633 241.455 537.371 241.1C538.54 240.856 539.921 241.351 541.009 241.726C544.098 242.792 547.356 243.283 550.623 243.174C553.292 243.081 556.068 242.551 558.169 240.89C559.129 240.125 559.917 239.168 560.483 238.079C559.993 240.062 558.873 241.832 557.293 243.127C555.192 244.776 552.422 245.324 549.746 245.411C546.482 245.52 543.226 245.029 540.139 243.963C539.045 243.588 537.639 243.093 536.494 243.336C534.756 243.692 534.975 244.754 534.243 246.035C533.229 247.797 529.372 248.127 528.579 245.895C528.414 245.195 528.414 244.465 528.58 243.764C528.856 241.746 528.519 239.533 527.17 238.008C525.258 235.851 522.039 235.643 519.182 235.286C516.325 234.928 513.025 233.827 512.213 231.065C511.62 229.071 512.515 226.646 511.247 225.002C510.653 224.341 509.891 223.852 509.041 223.589C506.922 222.769 504.547 222.337 502.384 223.011C498.582 224.259 496.286 228.708 492.335 229.256C491.736 229.365 491.118 229.293 490.56 229.049C489.06 228.298 488.998 226.136 487.849 224.923C486.043 223.01 482.616 224.24 480.404 222.82C478.954 221.888 478.405 220.082 477.999 218.413C477.226 215.169 476.596 211.776 477.36 208.539Z" fill="black"/>
</g>
<path opacity="0.1" d="M560.332 327.658C557.605 331.338 554.49 334.742 552.076 338.635C549.661 342.527 547.952 347.07 548.457 351.62C550.958 349.058 552.098 345.522 553.674 342.31C556.34 336.874 560.33 332.264 563.683 327.266C564.308 326.31 568.443 320.8 566.361 320.536C564.649 320.317 561.264 326.402 560.332 327.658Z" fill="black"/>
</g>
<defs>
<linearGradient id="paint0_linear_2292_572" x1="514.296" y1="487.386" x2="514.432" y2="176.445" gradientUnits="userSpaceOnUse">
<stop stop-color="#808080" stop-opacity="0.25"/>
<stop offset="0.54" stop-color="#808080" stop-opacity="0.12"/>
<stop offset="1" stop-color="#808080" stop-opacity="0.1"/>
</linearGradient>
<clipPath id="clip0_2292_572">
<rect width="713" height="492" fill="white" transform="translate(0.231445 0.00604248) rotate(0.0249272)"/>
</clipPath>
</defs>
</svg>
