<svg width="625" height="498" viewBox="0 0 625 498" fill="none" xmlns="http://www.w3.org/2000/svg">
<g clip-path="url(#clip0_1_38)">
<path opacity="0.3" d="M200.957 19.5327C220.214 2.39866 250.45 -1.08062 277.965 0.268616C364.402 4.55994 442.424 46.2177 509.91 93.341C534.34 110.4 558.396 128.784 574.255 152.277C606.538 200.106 596.966 266.356 552.071 305.752C536.799 319.157 518.287 329.433 499.274 338.546C465.49 354.743 429.01 367.742 390.653 371.446C363.294 374.082 335.598 371.94 308.408 368.255C232.42 357.973 157.852 335.204 95.3453 296.301C67.9303 279.23 42.0858 258.011 30.787 230.389C19.4882 202.767 26.7204 167.799 54.7422 151.433C66.3225 144.675 80.1676 141.62 93.7186 138.753C113.67 134.53 133.94 130.37 151.939 121.794C170.533 112.93 192.555 95.7897 188.851 76.1945C184.872 55.1314 181.744 36.6231 200.957 19.5327Z" fill="white"/>
<path opacity="0.3" d="M108.909 100.506C119.793 100.506 128.616 91.6963 128.616 80.8293C128.616 69.9624 119.793 61.153 108.909 61.153C98.0249 61.153 89.2017 69.9624 89.2017 80.8293C89.2017 91.6963 98.0249 100.506 108.909 100.506Z" fill="white"/>
<path opacity="0.3" d="M67.6238 46.1614C74.3615 46.1614 79.8235 40.708 79.8235 33.9808C79.8235 27.2536 74.3615 21.8002 67.6238 21.8002C60.8861 21.8002 55.4241 27.2536 55.4241 33.9808C55.4241 40.708 60.8861 46.1614 67.6238 46.1614Z" fill="#16CABF"/>
<path opacity="0.1" d="M579.06 78.9554C583.207 78.9554 586.568 75.5994 586.568 71.4596C586.568 67.3198 583.207 63.9639 579.06 63.9639C574.914 63.9639 571.553 67.3198 571.553 71.4596C571.553 75.5994 574.914 78.9554 579.06 78.9554Z" fill="#2271FF"/>
<path opacity="0.1" d="M431.632 498C460.739 498 484.334 495.651 484.334 492.753C484.334 489.855 460.739 487.506 431.632 487.506C402.525 487.506 378.929 489.855 378.929 492.753C378.929 495.651 402.525 498 431.632 498Z" fill="#2271FF"/>
<path d="M133.884 304.397L133.652 316.859L131.801 417.87L115.947 454.937L61.3113 455.561V310.137L118.331 305.627L133.884 304.397Z" fill="#5F5D7E"/>
<path opacity="0.1" d="M133.884 304.397L133.652 316.859L131.801 417.87L115.947 454.937L61.3113 455.561V310.137L118.331 305.627L133.884 304.397Z" fill="black"/>
<path d="M133.884 304.397L133.652 316.859L131.801 417.87L115.947 454.937L120.12 317.096L120.108 317.008L118.331 305.627L133.884 304.397Z" fill="#5F5D7E"/>
<path opacity="0.1" d="M118.331 305.627L133.884 304.397L133.652 316.859L120.108 317.008L61.3113 317.664V310.137L118.331 305.627Z" fill="black"/>
<path d="M625 310.137V454.724H612.281L561.393 417.664V306.058L606.857 301.792L609.647 303.073L612.281 304.284L625 310.137Z" fill="#5F5D7E"/>
<path opacity="0.1" d="M625 303.073H612.281V454.724H625V303.073Z" fill="black"/>
<path opacity="0.1" d="M625 303.073V311.387L612.281 311.53L561.393 312.093V306.058L606.857 301.792L609.647 303.073L612.281 304.284V303.073H625Z" fill="black"/>
<path d="M625 298.357V310.137L0 317.096V302.104L58.8088 290.236L570.571 286.488L625 298.357Z" fill="#5F5D7E"/>
<path opacity="0.1" d="M625 298.356V310.137L0 317.096V302.104L625 298.356Z" fill="black"/>
<path d="M433.308 121.787H242.943C235.058 121.787 228.666 128.169 228.666 136.042V277.243C228.666 285.116 235.058 291.498 242.943 291.498H433.308C441.193 291.498 447.585 285.116 447.585 277.243V136.042C447.585 128.169 441.193 121.787 433.308 121.787Z" fill="#474157"/>
<path d="M430.293 137.098H246.284V275.538H430.293V137.098Z" fill="#EDEDF4"/>
<path d="M239.102 209.326C240.767 209.326 242.117 207.978 242.117 206.315C242.117 204.652 240.767 203.304 239.102 203.304C237.436 203.304 236.086 204.652 236.086 206.315C236.086 207.978 237.436 209.326 239.102 209.326Z" fill="#E6E8EC"/>
<path d="M438.445 211.605C441.192 211.605 443.418 209.382 443.418 206.64C443.418 203.897 441.192 201.674 438.445 201.674C435.698 201.674 433.471 203.897 433.471 206.64C433.471 209.382 435.698 211.605 438.445 211.605Z" fill="#E6E8EC"/>
<path d="M358.127 206.852L334.597 192.573C334.108 192.302 333.557 192.164 332.999 192.171C332.44 192.178 331.893 192.33 331.411 192.613C330.929 192.895 330.529 193.298 330.251 193.782C329.973 194.265 329.825 194.813 329.824 195.371V223.143C329.825 223.701 329.973 224.248 330.251 224.732C330.529 225.216 330.929 225.619 331.411 225.901C331.893 226.184 332.44 226.336 332.999 226.343C333.557 226.35 334.108 226.211 334.597 225.941L358.127 212.461C358.625 212.182 359.041 211.774 359.33 211.281C359.618 210.789 359.771 210.228 359.771 209.657C359.771 209.086 359.618 208.525 359.33 208.032C359.041 207.539 358.625 207.132 358.127 206.852ZM375.82 209.257C375.82 202.709 373.875 196.308 370.231 190.864C366.588 185.42 361.409 181.176 355.35 178.671C349.292 176.165 342.625 175.509 336.193 176.787C329.76 178.064 323.852 181.217 319.215 185.847C314.578 190.477 311.42 196.376 310.14 202.798C308.861 209.22 309.518 215.877 312.027 221.926C314.537 227.975 318.787 233.146 324.24 236.784C329.692 240.421 336.103 242.363 342.661 242.363C351.455 242.363 359.889 238.875 366.108 232.667C372.326 226.458 375.82 218.037 375.82 209.257ZM315.922 209.257C315.922 203.977 317.49 198.815 320.428 194.425C323.367 190.034 327.543 186.612 332.429 184.592C337.315 182.571 342.691 182.042 347.878 183.072C353.065 184.103 357.829 186.645 361.569 190.379C365.308 194.113 367.855 198.87 368.887 204.048C369.919 209.227 369.389 214.595 367.365 219.473C365.341 224.352 361.914 228.521 357.517 231.455C353.12 234.388 347.95 235.954 342.661 235.954C339.15 235.955 335.672 235.265 332.428 233.924C329.183 232.582 326.235 230.616 323.752 228.137C321.269 225.657 319.299 222.714 317.956 219.474C316.612 216.235 315.921 212.763 315.922 209.257Z" fill="#16CABF"/>
<path d="M502.928 318.033C502.803 317.269 502.564 316.528 502.221 315.834C502.696 314.216 503.003 313.223 503.003 313.223C503.003 313.223 503.003 312.986 502.928 312.598C502.555 310.31 501.364 308.233 499.575 306.754C497.786 305.275 495.521 304.493 493.199 304.553C489.446 304.622 482.326 304.872 474.431 305.759C474.881 302.604 475.419 298.831 475.982 294.946L477.014 295.058C477.252 295.058 477.502 295.058 477.753 295.096H478.084C478.907 295.147 479.721 294.899 480.374 294.396C480.534 294.241 480.653 294.048 480.72 293.836C480.788 293.623 480.801 293.397 480.76 293.178C480.718 292.959 480.623 292.754 480.482 292.58C480.342 292.407 480.161 292.271 479.955 292.185C480.878 292.277 481.809 292.137 482.664 291.78C483.519 291.422 484.272 290.857 484.854 290.136C485.384 289.394 485.67 288.506 485.67 287.594C485.67 286.682 485.384 285.793 484.854 285.052C483.533 283.178 480.737 281.928 480.587 279.723C480.505 278.474 481.344 277.35 482.001 276.244C483.584 273.484 484.217 270.282 483.802 267.128C483.387 263.974 481.948 261.044 479.705 258.785C478.824 257.913 477.897 257.089 476.927 256.318C475.55 251.271 474.112 246.761 473.686 246.617C473.136 246.436 472.191 245.249 471.29 244.231C471.372 243.372 471.358 242.507 471.246 241.651C470.583 237.279 466.241 234.155 463.851 230.295C461.461 226.435 461.03 221.706 461.643 217.284C462.256 212.861 463.801 208.582 465.059 204.266C465.997 201.061 466.779 197.657 465.728 194.478C464.984 192.21 463.363 190.249 461.693 188.406C457.683 183.977 453.059 179.83 447.354 177.162C443.387 175.296 439.043 174.368 434.66 174.452H434.616L433.928 174.489L433.44 174.52L432.952 174.57L432.432 174.62C431.901 174.689 431.375 174.77 430.849 174.876C427.039 174.03 423.148 173.595 419.244 173.577H418.737C417.579 173.509 416.427 173.78 415.422 174.358C414.033 175.326 413.858 177.063 413.438 178.574C412.685 181.104 411.098 183.305 408.934 184.821C407.439 185.895 405.681 186.695 404.254 187.819C402.828 188.943 401.714 190.63 402.096 192.291C402.415 193.684 403.716 194.721 405.224 195.352C405.042 195.577 404.855 195.796 404.68 196.027C404.974 196.146 405.305 196.252 405.574 196.339C407.451 196.895 409.472 196.964 411.374 197.47C411.897 197.61 412.411 197.783 412.913 197.988C411.221 201.165 410.338 204.709 410.342 208.307C410.349 212.303 411.434 216.223 413.484 219.655C415.534 223.087 418.473 225.904 421.991 227.809C421.991 228.021 421.991 228.227 421.991 228.434C422.185 234.955 421.69 242.888 418.35 244.231C415.009 245.574 411.812 247.092 409.841 248.072L409.215 248.404C408.696 248.166 408.177 247.916 407.67 247.654C407.67 247.654 405.011 247.342 405.474 249.365C405.474 249.365 397.435 248.116 393.024 251.545C388.614 254.975 381.375 262.133 379.955 264.001C378.535 265.869 367.555 269.954 367.555 269.954C367.555 269.954 371.015 265.125 369.519 259.21C369.519 259.21 367.868 252.076 368.656 249.216C369.444 246.355 371.49 235.736 371.49 235.736C371.49 235.736 371.778 224.529 365.653 219.389C359.528 214.248 355.268 210.019 357.633 215.016C358.666 217.307 359.823 219.54 361.099 221.706C361.099 221.706 346.453 225.179 351.652 230.601C356.851 236.023 358.264 236.029 358.264 236.029C358.264 236.029 356.531 249.415 356.212 251.908C355.893 254.4 353.084 273.389 353.084 273.389C353.084 273.389 352.928 282.422 354.504 283.821C354.504 283.821 355.537 289.636 362.062 289.443C362.062 289.443 374.499 289.131 377.965 287.731C381.431 286.332 393.393 278.855 394.657 279.324C394.749 279.36 394.832 279.416 394.901 279.486C394.968 279.544 395.031 279.606 395.089 279.673C393.838 282.441 390.872 291.835 392.136 296.451C392.136 296.451 391.035 309.525 397.648 313.729C397.648 313.729 407.251 329.92 403.629 338.634C403.341 339.34 403.084 339.989 402.846 340.62C397.347 336.066 388.958 331.875 376.145 329.558C374.837 329.32 373.536 329.033 372.247 328.721C368.606 327.84 358.59 327.034 353.822 342.844C352.711 346.519 351.296 350.096 349.593 353.538C347.716 357.329 345.633 362.764 345.589 368.155C345.483 375.713 349.393 383.202 363.582 385.951C363.739 391.573 364.383 398.269 366.31 403.085C370.245 412.892 376.545 428.77 376.545 428.77C376.545 428.77 384.103 444.961 384.578 451.495C384.885 455.774 385.335 461.383 385.022 465.237C385.022 465.475 384.985 465.7 384.96 465.924C384.312 466.623 383.604 467.265 382.845 467.842C381.744 468.467 378.122 472.358 378.122 473.289C378.129 474.181 378.209 475.071 378.36 475.95C376.645 477.443 375.707 479.073 375.707 480.697C375.707 489.143 399.712 495.989 429.323 495.989C458.934 495.989 482.933 489.118 482.933 480.697C482.933 472.989 462.913 466.618 436.899 465.568C442.324 463.407 447.141 461.14 449.137 459.322C449.565 458.989 449.892 458.543 450.081 458.035L445.045 446.36C445.045 446.36 444.651 446.448 444.069 446.617L443.719 446.092C441.479 442.688 437.168 435.904 437.168 434.061C437.168 433.38 436.03 429.027 434.378 423.061V403.916C450.807 406.414 471.978 403.016 471.978 403.016L472.072 402.966H472.485V402.741C475.331 401.167 489.571 392.841 493.794 381.797C495.045 378.574 493.487 373.958 490.39 369.023C492.555 363.657 497.898 349.796 497.366 344.268C497.366 343.975 497.328 343.643 497.328 343.319C497.379 342.754 497.4 342.187 497.391 341.62C498.017 333.499 503.022 318.664 503.022 318.664C503.022 318.664 502.99 318.408 502.928 318.033ZM396.571 281.953C397.71 283.952 398.93 286.507 399.412 287.544C399.412 287.544 397.748 284.483 396.603 281.953H396.571ZM397.76 456.917L397.641 456.961V456.336C397.573 454.707 397.613 453.075 397.76 451.451C397.778 450.576 397.593 449.708 397.222 448.915C395.294 444.079 394.005 439.012 393.387 433.842C392.761 428.396 392.242 422.455 392.567 420.944C393.055 418.626 393.456 401.074 392.849 392.422L402.534 394.596L413.795 417.521C413.795 417.521 421.04 428.714 423.286 437.547V446.392C422.629 449.027 421.481 451.515 419.901 453.725C418.406 455.768 416.948 457.835 415.597 459.972C415.184 460.634 414.727 461.314 414.27 461.952C414.12 461.952 406.719 462.383 405.462 463.769C404.686 464.625 403.335 465.974 403.109 467.33L402.79 467.38C401.339 463.064 397.791 456.917 397.791 456.917H397.76Z" fill="url(#paint0_linear_1_38)"/>
<path opacity="0.1" d="M445.402 448.89L442.899 457.011L432.264 466.224L416.623 470.709C416.623 470.709 409.272 466.693 411.774 465.912C412.469 465.693 413.295 464.9 414.133 463.863C413.257 467.049 420.22 462.945 420.22 462.945C420.22 462.945 438.207 450.139 440.084 448.734C441.315 447.919 442.666 447.301 444.088 446.904C444.87 448.122 445.402 448.89 445.402 448.89Z" fill="black"/>
<path d="M445.402 448.89L442.899 457.011L432.264 466.224L416.623 470.709C416.623 470.709 409.272 466.693 411.774 465.912C412.469 465.693 413.295 464.9 414.133 463.863C414.888 462.901 415.586 461.896 416.223 460.852C417.561 458.703 419.013 456.63 420.496 454.606C422.659 451.531 424.016 447.964 424.443 444.23C425.538 435.641 414.433 418.307 414.433 418.307L394.257 376.925L422.41 380.36C422.41 380.36 437.581 432.362 437.581 434.861C437.581 436.735 441.861 443.512 444.088 446.929C444.87 448.122 445.402 448.89 445.402 448.89Z" fill="#FDC2CC"/>
<path d="M429.786 496.969C459.197 496.969 483.039 490.104 483.039 481.634C483.039 473.165 459.197 466.299 429.786 466.299C400.375 466.299 376.533 473.165 376.533 481.634C376.533 490.104 400.375 496.969 429.786 496.969Z" fill="#5F5D7E"/>
<path d="M450.407 458.885C450.217 459.392 449.892 459.839 449.468 460.178C445.602 463.719 431.144 468.985 422.21 471.846C419.868 472.662 417.48 473.34 415.059 473.876C412.869 474.032 408.333 472.627 405.205 470.709C402.077 468.792 404.893 466.068 406.156 464.663C407.42 463.257 414.915 462.839 414.915 462.839C411.318 468.817 420.227 463.569 420.227 463.569C420.227 463.569 438.213 450.764 440.09 449.359C441.967 447.953 445.408 447.172 445.408 447.172L450.407 458.885Z" fill="#2271FF"/>
<path d="M450.407 458.885C450.217 459.392 449.892 459.839 449.468 460.178C445.602 463.719 431.144 468.985 422.21 471.846C419.868 472.662 417.48 473.34 415.059 473.876C412.869 474.032 408.333 472.627 405.205 470.709C402.077 468.792 404.893 466.068 406.156 464.663C407.42 463.257 414.915 462.839 414.915 462.839C411.318 468.817 420.227 463.569 420.227 463.569C420.227 463.569 438.213 450.764 440.09 449.359C441.967 447.953 445.408 447.172 445.408 447.172L450.407 458.885Z" fill="#16CABF"/>
<path opacity="0.1" d="M449.468 460.19C445.602 463.732 431.144 468.998 422.21 471.859C430.305 465.012 443.881 461.433 449.468 460.19Z" fill="black"/>
<path opacity="0.1" d="M429.786 479.76C435.67 479.76 440.44 478.387 440.44 476.693C440.44 474.999 435.67 473.626 429.786 473.626C423.902 473.626 419.132 474.999 419.132 476.693C419.132 478.387 423.902 479.76 429.786 479.76Z" fill="black"/>
<path d="M434.81 395.802H423.861V476.693H434.81V395.802Z" fill="#5F5D7E"/>
<path opacity="0.1" d="M434.81 399.812V409.181C432.62 408.507 427.621 405.665 423.861 403.428V395.795H426.145L434.81 399.812Z" fill="black"/>
<path d="M409.015 360.584C409.015 360.584 445.164 351.295 454.161 344.343C463.157 337.391 498.486 370.103 493.819 382.447C489.152 394.79 472.16 403.728 472.16 403.728C472.16 403.728 425.169 411.361 417.167 395.439C409.166 379.517 409.015 360.584 409.015 360.584Z" fill="#474157"/>
<path opacity="0.1" d="M409.015 360.584C409.015 360.584 445.164 351.295 454.161 344.343C463.157 337.391 498.486 370.103 493.819 382.447C489.152 394.79 472.16 403.728 472.16 403.728C472.16 403.728 425.169 411.361 417.167 395.439C409.166 379.517 409.015 360.584 409.015 360.584Z" fill="black"/>
<path d="M405.887 356.836C405.887 356.836 442.036 347.547 451.032 340.595C460.029 333.643 495.358 366.356 490.691 378.699C486.024 391.042 469.032 399.98 469.032 399.98C469.032 399.98 422.041 407.613 414.039 391.691C406.037 375.769 405.887 356.836 405.887 356.836Z" fill="#474157"/>
<path d="M372.36 271.659L368.45 270.241C368.45 270.241 371.891 265.4 370.408 259.466C370.408 259.466 368.763 252.307 369.545 249.409C370.327 246.511 372.36 235.885 372.36 235.885C372.36 235.885 372.648 224.642 366.56 219.488C360.473 214.335 356.25 210.119 358.596 215.116C359.621 217.415 360.769 219.656 362.037 221.831C362.037 221.831 347.491 225.31 352.653 230.757C357.814 236.204 359.222 236.198 359.222 236.198C359.222 236.198 357.501 249.628 357.188 252.126C356.876 254.625 354.06 273.677 354.06 273.677C354.06 273.677 353.904 282.734 355.468 284.139C355.815 285.831 356.771 287.336 358.154 288.372C359.537 289.408 361.252 289.902 362.976 289.761C364.089 289.743 377.365 275.095 372.36 271.659Z" fill="#FDC2CC"/>
<path d="M466.829 242.925V251.67L457.758 254.625L442.305 265.981L438.207 268.992L419.907 261.652L408.333 249.472C408.333 249.472 408.896 249.166 409.872 248.66L410.498 248.328C412.456 247.348 415.54 245.83 418.95 244.474C422.36 243.119 422.76 235.173 422.566 228.627V228.002C422.41 223.411 421.941 219.657 421.941 219.657C421.941 219.657 423.849 219.295 426.627 218.883C434.328 217.74 448.699 216.197 447.435 220.906C447.066 222.508 447.066 224.171 447.435 225.772C447.472 225.947 447.51 226.129 447.554 226.303C448.855 231.981 452.884 237.928 452.884 237.928L465.397 242.426L465.747 242.551L466.829 242.925Z" fill="#FDC2CC"/>
<path d="M466.829 245.58V242.925C467.813 242.756 468.818 242.756 469.801 242.925C470.896 243.238 472.973 246.517 473.912 246.829C474.85 247.142 480.593 268.536 479.968 270.41C479.342 272.284 473.43 314.591 473.43 314.591L461.512 327.709L459.166 291.635L466.829 270.241V245.58Z" fill="#FDC2CC"/>
<path d="M405.049 343.806C405.049 343.806 394.157 346.148 395.539 349.584C396.922 353.019 403.016 353.176 403.016 353.176L405.049 343.806Z" fill="#FDC2CC"/>
<path d="M420.22 274.439L411.931 292.272L402.077 299.456L400.357 288.356C400.357 288.356 397.028 281.016 395.596 279.773C395.526 279.703 395.443 279.648 395.352 279.611C394.1 279.142 382.214 286.638 378.773 288.044C375.332 289.449 362.976 289.761 362.976 289.761L368.45 270.241C368.45 270.241 379.398 266.181 380.806 264.307C382.214 262.433 389.408 255.25 393.788 251.814C398.167 248.378 406.156 249.628 406.156 249.628L406.281 249.678L408.333 250.565L414.277 265.088L420.22 274.439Z" fill="#FDC2CC"/>
<path d="M398.48 452.338C398.333 453.966 398.293 455.602 398.361 457.235C398.405 458.978 398.48 460.459 398.48 460.459L394.882 467.954C394.882 467.954 382.526 472.015 384.56 470.297C385.267 469.703 385.629 468.161 385.811 466.118C386.117 462.258 385.673 456.63 385.367 452.338C384.897 445.779 377.39 429.539 377.39 429.539C377.39 429.539 371.134 413.61 367.224 403.772C363.313 393.934 364.721 376.131 364.721 376.131C364.721 376.131 365.347 362.701 368.162 358.641C370.977 354.581 381.926 353.176 381.926 353.176L387.062 370.185C387.062 370.185 391.285 386.113 392.849 388.456C394.413 390.798 393.944 418.751 393.318 421.718C392.999 423.236 393.537 429.214 394.138 434.661C394.751 439.842 396.029 444.922 397.942 449.777C398.315 450.578 398.499 451.455 398.48 452.338Z" fill="#FDC2CC"/>
<path opacity="0.1" d="M398.48 460.459L394.882 467.954C394.882 467.954 382.526 472.015 384.559 470.297C385.266 469.703 385.629 468.161 385.811 466.118C386.255 465.674 386.73 465.187 387.218 464.688C390.363 461.433 394.171 458.891 398.386 457.235C398.405 458.978 398.48 460.459 398.48 460.459Z" fill="black"/>
<path d="M404.123 471.615C404.126 471.644 404.126 471.673 404.123 471.702C403.497 474.669 393.174 478.73 393.174 478.73C393.174 478.73 386.605 479.823 382.852 480.76C382.564 480.837 382.266 480.865 381.969 480.841C379.073 480.622 378.941 475.057 378.941 474.201C378.941 473.345 382.539 469.36 383.634 468.735C384.872 467.71 386.034 466.597 387.112 465.406C390.323 462.086 394.21 459.494 398.511 457.804C398.511 457.804 404.623 468.535 404.123 471.615Z" fill="#2271FF"/>
<path d="M404.123 471.615C404.126 471.644 404.126 471.673 404.123 471.702C403.497 474.669 393.174 478.73 393.174 478.73C393.174 478.73 386.605 479.823 382.852 480.76C382.564 480.837 382.266 480.865 381.969 480.841C379.073 480.622 378.941 475.057 378.941 474.201C378.941 473.345 382.539 469.36 383.634 468.735C384.891 467.697 386.071 466.568 387.162 465.356C390.305 462.086 394.116 459.53 398.336 457.86L398.511 457.792C398.511 457.792 404.623 468.535 404.123 471.615Z" fill="#16CABF"/>
<path opacity="0.1" d="M404.123 471.615C404.126 471.644 404.126 471.673 404.123 471.702C403.497 474.669 393.174 478.73 393.174 478.73C393.174 478.73 386.605 479.823 382.852 480.76C382.564 480.837 382.266 480.865 381.969 480.841C385.373 478.511 393.625 472.92 394.739 472.796C395.852 472.671 401.339 471.096 404.123 471.615Z" fill="black"/>
<path opacity="0.1" d="M447.579 226.303C443.712 229.483 440.159 229.027 434.76 229.027C430.856 229.027 425.782 230.395 422.585 228.64C422.454 223.761 421.959 219.657 421.959 219.657C421.959 219.657 449.174 214.504 447.454 220.907C447.06 222.689 447.103 224.541 447.579 226.303Z" fill="black"/>
<path d="M455.724 208.439C455.724 214.361 453.368 220.041 449.174 224.229C444.979 228.417 439.29 230.77 433.358 230.77C432.783 230.77 432.207 230.77 431.644 230.707C427.307 230.373 423.161 228.783 419.715 226.133C416.269 223.482 413.672 219.886 412.242 215.784C410.812 211.682 410.611 207.253 411.663 203.038C412.716 198.824 414.977 195.008 418.169 192.057C421.36 189.106 425.345 187.148 429.634 186.424C433.923 185.699 438.331 186.24 442.317 187.978C446.304 189.717 449.696 192.578 452.078 196.212C454.461 199.846 455.73 204.095 455.731 208.439H455.724Z" fill="#FDC2CC"/>
<path opacity="0.1" d="M414.277 265.1L420.22 274.47L411.931 292.304L402.077 299.487L400.357 288.356C400.357 288.356 397.028 281.016 395.596 279.773C396.009 278.768 396.29 278.305 396.29 278.674C396.29 280.235 400.138 287.263 400.138 287.263C412.025 283.203 408.333 267.43 408.333 267.43C408.333 267.43 406.857 253.376 406.281 249.678L408.333 250.565L414.277 265.1Z" fill="black"/>
<path opacity="0.1" d="M466.829 242.925V251.67L457.758 254.625L442.305 265.981L438.207 268.992L419.907 261.652L408.333 249.472C408.333 249.472 408.896 249.166 409.872 248.66L410.498 248.329C418.55 251.983 427.265 253.326 433.49 253.807C436.352 254.049 439.228 254.114 442.098 254C465.666 250.252 466.366 244.568 465.778 242.551L466.829 242.925Z" fill="black"/>
<path d="M473.555 384.552C467.656 387.44 461.598 389.994 455.412 392.203C444.62 396.108 420.846 390.954 417.874 390.173C414.902 389.393 392.067 380.335 383.308 376.9C374.55 373.464 372.36 376.275 370.327 375.963C368.293 375.65 366.886 371.746 366.573 370.653C366.26 369.56 372.204 360.034 375.488 355.193C378.773 350.352 388.626 351.289 390.034 350.977C391.442 350.664 401.295 350.977 401.295 350.977C401.295 350.977 400.67 347.854 404.267 339.108C407.864 330.363 398.323 314.123 398.323 314.123C391.754 309.906 392.849 296.789 392.849 296.789C391.285 291.011 396.29 277.737 396.29 279.298C396.29 280.86 400.138 287.887 400.138 287.887C412.025 283.827 408.333 268.055 408.333 268.055C408.333 268.055 406.613 251.658 406.156 249.628C405.7 247.598 408.333 247.91 408.333 247.91C408.842 248.172 409.355 248.422 409.872 248.66C418.106 252.532 427.115 253.944 433.509 254.431C436.371 254.674 439.246 254.738 442.117 254.625C470.69 250.021 465.628 242.682 465.441 242.419L466.829 242.913C477.152 250.409 474.024 275.238 474.024 275.238L470.158 293.772L467.286 307.576C467.286 307.576 477.453 369.104 478.391 372.227C479.329 375.35 473.555 384.552 473.555 384.552Z" fill="#16CABF"/>
<path opacity="0.1" d="M397.385 356.442C396.759 356.911 389.721 371.434 394.882 375.494C400.044 379.554 397.385 356.442 397.385 356.442Z" fill="black"/>
<path opacity="0.1" d="M402.39 358.485C402.546 358.954 417.092 382.066 425.069 383.939L402.39 358.485Z" fill="black"/>
<path opacity="0.1" d="M437.431 175.595L435.104 176.088C435.745 175.852 436.401 175.658 437.068 175.507L437.431 175.595Z" fill="black"/>
<path opacity="0.1" d="M472.479 275.238L468.099 293.759C465.865 292.742 463.811 291.368 462.018 289.693C460.623 288.368 459.372 286.851 457.576 285.982C455.268 284.864 452.484 285.014 449.862 284.92C446.588 284.798 443.344 284.244 440.215 283.271C439.307 283.044 438.455 282.631 437.713 282.059C436.224 280.748 436.324 278.63 436.462 276.781C436.734 273.187 436.765 269.579 436.555 265.981C436.518 265.306 436.468 264.632 436.412 263.957C436.161 260.94 435.348 257.442 432.257 256.149C430.668 255.524 428.773 255.574 427.252 254.819C427.033 254.708 426.823 254.579 426.627 254.431C424.374 252.857 424.168 249.703 424.256 247.048C424.389 243.4 424.516 239.75 424.637 236.098C424.751 234.297 424.711 232.489 424.518 230.695C424.368 229.503 424.039 228.341 423.542 227.247C422.185 224.348 419.357 221.931 418.85 218.87C418.822 218.728 418.803 218.584 418.794 218.439C418.531 215.703 420.258 213.155 420.865 210.462C422.078 205.047 417.999 199.113 412 197.557C410.123 197.07 408.108 196.976 406.238 196.42C405.938 196.331 405.644 196.227 405.355 196.108C409.885 190.074 417.649 186.114 426.464 186.114C440.434 186.114 451.764 196.108 451.764 208.445C451.764 215.441 448.117 221.681 442.418 225.779C442.455 225.954 442.499 226.135 442.549 226.31C444.019 231.988 448.58 237.934 448.58 237.934L462.744 242.432L464.321 242.932C476.02 250.421 472.479 275.238 472.479 275.238Z" fill="black"/>
<path opacity="0.1" d="M480.168 293.178C480.03 293.178 479.899 293.147 479.767 293.122C479.903 293.108 480.041 293.127 480.168 293.178Z" fill="black"/>
<path d="M431.794 174.976C427.88 174.068 423.876 173.601 419.857 173.583C418.55 173.583 417.148 173.652 416.104 174.37C414.721 175.338 414.546 177.088 414.133 178.599C413.386 181.123 411.81 183.324 409.66 184.846C408.177 185.926 406.431 186.72 405.011 187.856C403.591 188.993 402.509 190.68 402.865 192.341C403.222 194.003 405.093 195.283 406.97 195.814C408.846 196.345 410.842 196.439 412.732 196.951C418.731 198.507 422.804 204.447 421.59 209.85C420.965 212.542 419.257 215.091 419.52 217.827C419.826 221.094 422.848 223.611 424.268 226.641C425.563 229.402 425.476 232.5 425.375 235.486L424.994 246.442C424.894 249.328 425.144 252.801 427.997 254.213C429.523 254.962 431.425 254.881 433.002 255.543C436.092 256.83 436.906 260.334 437.156 263.345C437.514 267.612 437.53 271.9 437.206 276.169C437.062 278.043 436.962 280.136 438.457 281.447C439.197 282.021 440.05 282.434 440.96 282.659C444.088 283.632 447.332 284.186 450.607 284.308C453.235 284.408 456.012 284.258 458.321 285.37C460.116 286.238 461.368 287.762 462.763 289.08C466.763 292.735 471.862 294.964 477.265 295.421C478.422 295.521 479.736 295.496 480.543 294.752C481.35 294.009 480.875 292.404 479.724 292.497C480.701 292.661 481.705 292.561 482.632 292.208C483.558 291.854 484.373 291.26 484.991 290.486C485.518 289.739 485.8 288.848 485.8 287.934C485.8 287.021 485.518 286.13 484.991 285.383C483.684 283.509 480.906 282.259 480.756 280.036C480.674 278.786 481.507 277.656 482.157 276.544C483.726 273.776 484.352 270.574 483.941 267.419C483.531 264.265 482.105 261.33 479.88 259.054C476.946 256.024 472.548 253.725 471.522 249.84C470.84 247.242 471.872 244.512 471.478 241.87C470.852 237.497 466.517 234.374 464.133 230.476C461.749 226.578 461.33 221.862 461.937 217.427C462.544 212.992 464.083 208.682 465.334 204.372C466.266 201.155 467.036 197.738 465.997 194.546C465.253 192.279 463.651 190.311 461.987 188.456C458.002 184.015 453.416 179.855 447.748 177.212C442.08 174.57 435.173 173.546 429.154 175.501" fill="#474157"/>
<path d="M431.794 174.976C427.88 174.068 423.876 173.601 419.857 173.583C418.55 173.583 417.148 173.652 416.104 174.37C414.721 175.338 414.546 177.088 414.133 178.599C413.386 181.123 411.81 183.324 409.66 184.846C408.177 185.926 406.431 186.72 405.011 187.856C403.591 188.993 402.509 190.68 402.865 192.341C403.222 194.003 405.093 195.283 406.97 195.814C408.846 196.345 410.842 196.439 412.732 196.951C418.731 198.507 422.804 204.447 421.59 209.85C420.965 212.542 419.257 215.091 419.52 217.827C419.826 221.094 422.848 223.611 424.268 226.641C425.563 229.402 425.476 232.5 425.375 235.486L424.994 246.442C424.894 249.328 425.144 252.801 427.997 254.213C429.523 254.962 431.425 254.881 433.002 255.543C436.092 256.83 436.906 260.334 437.156 263.345C437.514 267.612 437.53 271.9 437.206 276.169C437.062 278.043 436.962 280.136 438.457 281.447C439.197 282.021 440.05 282.434 440.96 282.659C444.088 283.632 447.332 284.186 450.607 284.308C453.235 284.408 456.012 284.258 458.321 285.37C460.116 286.238 461.368 287.762 462.763 289.08C466.763 292.735 471.862 294.964 477.265 295.421C478.422 295.521 479.736 295.496 480.543 294.752C481.35 294.009 480.875 292.404 479.724 292.497C480.701 292.661 481.705 292.561 482.632 292.208C483.558 291.854 484.373 291.26 484.991 290.486C485.518 289.739 485.8 288.848 485.8 287.934C485.8 287.021 485.518 286.13 484.991 285.383C483.684 283.509 480.906 282.259 480.756 280.036C480.674 278.786 481.507 277.656 482.157 276.544C483.726 273.776 484.352 270.574 483.941 267.419C483.531 264.265 482.105 261.33 479.88 259.054C476.946 256.024 472.548 253.725 471.522 249.84C470.84 247.242 471.872 244.512 471.478 241.87C470.852 237.497 466.517 234.374 464.133 230.476C461.749 226.578 461.33 221.862 461.937 217.427C462.544 212.992 464.083 208.682 465.334 204.372C466.266 201.155 467.036 197.738 465.997 194.546C465.253 192.279 463.651 190.311 461.987 188.456C458.002 184.015 453.416 179.855 447.748 177.212C442.08 174.57 435.173 173.546 429.154 175.501" fill="#263238"/>
<path opacity="0.1" d="M398.323 314.135C398.323 314.135 403.641 316.165 409.272 310.543C414.902 304.922 398.323 314.135 398.323 314.135Z" fill="black"/>
<g opacity="0.1">
<path d="M434.147 174.882C435.179 174.678 436.224 174.546 437.275 174.489C435.814 174.4 434.348 174.446 432.895 174.626L434.147 174.882Z" fill="black"/>
<path d="M465.515 289.08C464.114 287.762 462.869 286.238 461.067 285.37C458.765 284.258 455.981 284.408 453.353 284.308C450.079 284.189 446.834 283.634 443.706 282.659C442.796 282.434 441.944 282.021 441.204 281.447C439.715 280.136 439.821 278.024 439.952 276.169C440.277 271.9 440.26 267.612 439.902 263.345C439.646 260.334 438.839 256.83 435.742 255.543C434.159 254.881 432.263 254.962 430.737 254.213C427.884 252.801 427.609 249.328 427.728 246.442C427.857 242.79 427.984 239.14 428.109 235.492C428.216 232.5 428.297 229.402 427.002 226.641C425.582 223.611 422.56 221.1 422.253 217.827C421.997 215.097 423.724 212.542 424.33 209.85C425.544 204.435 421.465 198.507 415.465 196.951C413.589 196.464 411.574 196.364 409.703 195.814C407.833 195.265 406.018 194.078 405.631 192.379C405.243 190.68 406.35 189.031 407.77 187.888C409.19 186.745 410.936 185.958 412.425 184.877C414.576 183.356 416.15 181.155 416.892 178.63C417.311 177.119 417.517 175.376 418.863 174.402C419.634 173.924 420.52 173.665 421.428 173.652C420.871 173.652 420.314 173.621 419.763 173.621C418.456 173.621 417.054 173.689 416.01 174.402C414.627 175.376 414.452 177.119 414.039 178.63C413.292 181.155 411.716 183.355 409.566 184.877C408.083 185.958 406.337 186.751 404.917 187.888C403.497 189.025 402.415 190.711 402.771 192.379C403.128 194.047 404.98 195.259 406.851 195.814C408.721 196.37 410.723 196.439 412.613 196.951C418.612 198.507 422.685 204.447 421.471 209.85C420.846 212.542 419.138 215.097 419.401 217.827C419.707 221.1 422.729 223.611 424.149 226.641C425.444 229.402 425.363 232.5 425.256 235.492C425.127 239.14 425 242.79 424.875 246.442C424.775 249.328 425.025 252.801 427.878 254.213C429.404 254.962 431.306 254.881 432.883 255.543C435.973 256.83 436.787 260.334 437.037 263.345C437.395 267.612 437.411 271.9 437.087 276.169C436.943 278.043 436.843 280.136 438.338 281.447C439.078 282.021 439.931 282.434 440.841 282.659C443.969 283.635 447.213 284.189 450.488 284.308C453.116 284.408 455.893 284.258 458.202 285.37C459.997 286.238 461.249 287.762 462.65 289.08C466.647 292.736 471.745 294.966 477.146 295.421C477.844 295.504 478.552 295.476 479.242 295.339C474.12 294.749 469.316 292.559 465.515 289.08Z" fill="black"/>
</g>
<path opacity="0.1" d="M368.45 270.241C368.45 270.241 363.445 274.826 364.177 276.7C364.909 278.574 368.45 270.241 368.45 270.241Z" fill="black"/>
<path d="M373.092 329.177C369.482 328.296 359.528 327.484 354.792 343.344C353.69 347.027 352.286 350.615 350.594 354.069C346.052 363.382 340.184 382.534 365.991 386.75L427.928 400.805C427.928 400.805 461.086 404.865 463.276 403.303C465.465 401.742 465.153 398.306 465.153 398.306C465.153 398.306 428.553 398.306 421.359 387.063C414.164 375.819 413.851 360.515 413.851 360.515C413.851 360.515 414.752 336.885 376.939 330.02C375.688 329.783 374.374 329.489 373.092 329.177Z" fill="#474157"/>
<path d="M373.092 329.283C369.482 328.402 359.528 327.59 354.792 343.456C353.69 347.14 352.286 350.727 350.594 354.181C346.052 363.489 340.184 382.64 365.991 386.857L427.928 400.911C427.928 400.911 461.086 404.971 463.276 403.41C465.465 401.848 465.153 398.413 465.153 398.413C465.153 398.413 428.553 398.413 421.359 387.169C414.164 375.925 413.851 360.621 413.851 360.621C413.851 360.621 414.752 336.991 376.939 330.126C375.688 329.889 374.374 329.583 373.092 329.283Z" fill="#263238"/>
<path d="M502.928 313.017C502.569 310.731 501.392 308.653 499.614 307.168C497.836 305.684 495.579 304.894 493.262 304.947C484.353 305.109 456.932 306.296 444.194 314.604C444.194 314.604 434.497 320.85 431.682 320.85C428.866 320.85 390.703 353.332 447.322 382.378C447.322 382.378 477.665 390.998 489.552 370.759C489.552 370.759 497.998 349.022 497.372 341.495C496.747 333.968 503.003 313.667 503.003 313.667C503.003 313.667 502.991 313.423 502.928 313.017Z" fill="#474157"/>
<path d="M502.928 318.489C502.215 314.116 498.048 310.956 493.262 311.037C484.353 311.187 456.932 312.286 444.194 319.951C444.194 319.951 434.497 325.716 431.682 325.716C428.866 325.716 390.703 355.699 447.322 382.515C447.322 382.515 477.665 390.473 489.552 371.79C489.552 371.79 497.998 351.72 497.372 344.774C496.747 337.828 503.003 319.089 503.003 319.089C503.003 319.089 502.991 318.864 502.928 318.489Z" fill="#263238"/>
<path d="M472.66 382.372H462.65V403.653H472.66V382.372Z" fill="#5F5D7E"/>
<path opacity="0.1" d="M106.507 295.833C122.069 295.833 134.685 295.025 134.685 294.028C134.685 293.031 122.069 292.222 106.507 292.222C90.9442 292.222 78.3284 293.031 78.3284 294.028C78.3284 295.025 90.9442 295.833 106.507 295.833Z" fill="black"/>
<path d="M130.155 224.405C129.555 225.226 129.075 226.128 128.729 227.084C128.641 227.322 128.554 227.584 128.466 227.84C128.308 227.765 128.142 227.709 127.972 227.671C127.242 227.489 126.488 227.424 125.738 227.478C125.738 227.19 125.776 226.853 125.782 226.566C125.876 223.274 125.488 218.683 122.341 220.625C119.326 222.499 121.478 225.623 123.424 227.628L123.924 228.115C122.147 229.364 121.809 232.319 121.515 235.386C121.221 238.453 118.612 241.813 116.879 243.719C116.704 243.912 116.548 244.087 116.391 244.25C115.692 243.69 114.881 243.285 114.013 243.062C113.144 242.84 112.238 242.803 111.355 242.957C111.286 242.688 111.205 242.407 111.124 242.107C109.722 237.06 106.813 228.309 103.103 226.391L103.591 225.766C105.168 223.705 106.945 220.65 104.323 219.863C101.702 219.076 101.464 222.518 101.608 225.092C101.608 225.416 101.658 225.716 101.683 226.004C101.159 226.029 100.646 226.161 100.175 226.39C99.7039 226.62 99.2846 226.943 98.9428 227.34L98.5361 226.866C96.409 224.367 92.5113 220.388 91.3289 223.393C90.2278 226.191 93.6625 229.82 96.0774 231.925L96.2276 232.056C94.6072 238.634 101.664 244.006 105.493 246.33L105.987 246.63C100.732 252.814 97.4851 264.401 97.4851 264.401L112.2 267.024C112.2 267.024 121.96 258.623 120.708 250.727H120.808C130.562 248.778 132.777 238.397 131.256 232.231L131.432 232.163C133.207 231.435 134.764 230.26 135.949 228.752C138.676 224.96 132.946 220.688 130.155 224.405Z" fill="#2271FF"/>
<path opacity="0.84" d="M130.155 224.405C129.555 225.226 129.075 226.128 128.729 227.084C128.641 227.322 128.554 227.584 128.466 227.84C128.308 227.765 128.142 227.709 127.972 227.671C127.242 227.489 126.488 227.424 125.738 227.478C125.738 227.19 125.776 226.853 125.782 226.566C125.876 223.274 125.488 218.683 122.341 220.625C119.326 222.499 121.478 225.623 123.424 227.628L123.924 228.115C122.147 229.364 121.809 232.319 121.515 235.386C121.221 238.453 118.612 241.813 116.879 243.719C116.704 243.912 116.548 244.087 116.391 244.25C115.692 243.69 114.881 243.285 114.013 243.062C113.144 242.84 112.238 242.803 111.355 242.957C111.286 242.688 111.205 242.407 111.124 242.107C109.722 237.06 106.813 228.309 103.103 226.391L103.591 225.766C105.168 223.705 106.945 220.65 104.323 219.863C101.702 219.076 101.464 222.518 101.608 225.092C101.608 225.416 101.658 225.716 101.683 226.004C101.159 226.029 100.646 226.161 100.175 226.39C99.7039 226.62 99.2846 226.943 98.9428 227.34L98.5361 226.866C96.409 224.367 92.5113 220.388 91.3289 223.393C90.2278 226.191 93.6625 229.82 96.0774 231.925L96.2276 232.056C94.6072 238.634 101.664 244.006 105.493 246.33L105.987 246.63C100.732 252.814 97.4851 264.401 97.4851 264.401L112.2 267.024C112.2 267.024 121.96 258.623 120.708 250.727H120.808C130.562 248.778 132.777 238.397 131.256 232.231L131.432 232.163C133.207 231.435 134.764 230.26 135.949 228.752C138.676 224.96 132.946 220.688 130.155 224.405Z" fill="#16CABF"/>
<path d="M100.863 228.64L99.1617 233.668C99.1617 233.668 98.2045 232.993 96.9971 231.932C94.5822 229.827 91.1475 226.197 92.2486 223.399C93.431 220.394 97.3287 224.361 99.4558 226.872C100.294 227.865 100.863 228.64 100.863 228.64Z" fill="#16CABF"/>
<path d="M104.492 225.773C103.968 226.458 103.409 227.114 102.815 227.74C102.669 226.865 102.566 225.983 102.509 225.098C102.365 222.524 102.64 219.108 105.224 219.87C107.808 220.632 106.044 223.711 104.492 225.773Z" fill="#16CABF"/>
<path d="M126.689 226.566C126.639 228.221 126.477 229.539 126.477 229.539C125.719 228.951 125.002 228.312 124.331 227.628C122.385 225.61 120.233 222.499 123.248 220.625C126.389 218.683 126.777 223.274 126.689 226.566Z" fill="#16CABF"/>
<path d="M136.849 228.733C135.66 230.24 134.099 231.414 132.32 232.138C131.827 232.351 131.322 232.532 130.806 232.681L128.779 229.839C128.993 228.9 129.274 227.978 129.617 227.078C129.963 226.122 130.443 225.22 131.044 224.398C133.859 220.688 139.577 224.96 136.849 228.733Z" fill="#16CABF"/>
<path opacity="0.1" d="M99.437 226.872C100.294 227.865 100.863 228.64 100.863 228.64L99.1617 233.668C99.1617 233.668 98.2045 232.993 96.9971 231.931C97.2666 230.322 97.9331 228.804 98.9365 227.515C99.0867 227.284 99.2681 227.065 99.437 226.872Z" fill="black"/>
<path opacity="0.1" d="M104.492 225.773C103.968 226.458 103.409 227.114 102.815 227.74C102.669 226.865 102.566 225.983 102.509 225.098C103.224 225.11 103.918 225.346 104.492 225.773Z" fill="black"/>
<path d="M112.925 245.736L108.646 247.61C108.646 247.61 107.714 247.16 106.369 246.323C101.871 243.556 92.8303 236.604 98.8926 228.409C104.955 220.213 110.01 234.917 111.999 242.101C112.631 244.256 112.925 245.736 112.925 245.736Z" fill="#16CABF"/>
<path opacity="0.1" d="M124.324 227.628C124.945 226.985 125.789 226.604 126.683 226.566C126.633 228.221 126.47 229.539 126.47 229.539C125.712 228.951 124.996 228.312 124.324 227.628Z" fill="black"/>
<path opacity="0.1" d="M132.32 232.138C131.827 232.351 131.322 232.532 130.806 232.681L128.779 229.839C128.993 228.9 129.274 227.978 129.617 227.078C130.937 227.853 131.901 229.745 132.32 232.138Z" fill="black"/>
<path d="M121.684 250.708L120.965 250.833C106.619 253.013 116.235 245.286 116.235 245.286C116.235 245.286 116.861 244.693 117.755 243.719C119.488 241.813 122.091 238.472 122.391 235.386C122.842 230.745 123.361 226.391 128.848 227.671C134.259 228.927 135.292 247.991 121.684 250.708Z" fill="#16CABF"/>
<path d="M121.44 286.363H94.0315V293.559H121.44V286.363Z" fill="#474157"/>
<path d="M125.488 262.976H89.6772V288.087H125.488V262.976Z" fill="#474157"/>
<path opacity="0.1" d="M121.177 286.363H93.7688V293.559H121.177V286.363Z" fill="black"/>
<path opacity="0.1" d="M125.375 262.983H89.5645V288.093H125.375V262.983Z" fill="black"/>
<path d="M123.242 286.363H95.8333V293.559H123.242V286.363Z" fill="#474157"/>
<path opacity="0.1" d="M112.024 242.132C112.65 244.281 112.95 245.761 112.95 245.761L108.671 247.635C108.671 247.635 107.739 247.185 106.394 246.348C108.07 244.206 109.96 242.6 112.024 242.132Z" fill="black"/>
<path opacity="0.1" d="M121.684 250.708L120.965 250.833C106.619 253.013 116.235 245.286 116.235 245.286C116.235 245.286 116.861 244.693 117.755 243.719C120.433 245.88 121.565 248.272 121.684 250.708Z" fill="black"/>
<path d="M98.386 264.401C98.386 264.401 106.419 235.667 117.687 244.537C128.954 253.407 113.101 267.024 113.101 267.024L98.386 264.401Z" fill="#16CABF"/>
<path opacity="0.1" d="M102.44 233.812C102.938 233.812 103.341 233.409 103.341 232.912C103.341 232.415 102.938 232.013 102.44 232.013C101.942 232.013 101.539 232.415 101.539 232.912C101.539 233.409 101.942 233.812 102.44 233.812Z" fill="black"/>
<path opacity="0.1" d="M102.365 238.016C102.862 238.016 103.266 237.613 103.266 237.116C103.266 236.619 102.862 236.217 102.365 236.217C101.867 236.217 101.464 236.619 101.464 237.116C101.464 237.613 101.867 238.016 102.365 238.016Z" fill="black"/>
<path opacity="0.1" d="M128.497 234.636C128.995 234.636 129.398 234.234 129.398 233.737C129.398 233.24 128.995 232.837 128.497 232.837C128 232.837 127.596 233.24 127.596 233.737C127.596 234.234 128 234.636 128.497 234.636Z" fill="black"/>
<path opacity="0.1" d="M107.47 256.155C107.968 256.155 108.371 255.753 108.371 255.256C108.371 254.759 107.968 254.356 107.47 254.356C106.972 254.356 106.569 254.759 106.569 255.256C106.569 255.753 106.972 256.155 107.47 256.155Z" fill="black"/>
<path opacity="0.1" d="M126.62 241.614C127.118 241.614 127.521 241.211 127.521 240.714C127.521 240.217 127.118 239.815 126.62 239.815C126.123 239.815 125.719 240.217 125.719 240.714C125.719 241.211 126.123 241.614 126.62 241.614Z" fill="black"/>
<path opacity="0.1" d="M117.311 250.908C117.809 250.908 118.212 250.506 118.212 250.009C118.212 249.512 117.809 249.109 117.311 249.109C116.813 249.109 116.41 249.512 116.41 250.009C116.41 250.506 116.813 250.908 117.311 250.908Z" fill="black"/>
<path opacity="0.1" d="M105.518 235.611C106.016 235.611 106.419 235.208 106.419 234.711C106.419 234.214 106.016 233.812 105.518 233.812C105.021 233.812 104.617 234.214 104.617 234.711C104.617 235.208 105.021 235.611 105.518 235.611Z" fill="black"/>
<path opacity="0.1" d="M126.02 237.341C126.517 237.341 126.921 236.938 126.921 236.441C126.921 235.945 126.517 235.542 126.02 235.542C125.522 235.542 125.119 235.945 125.119 236.441C125.119 236.938 125.522 237.341 126.02 237.341Z" fill="black"/>
<path opacity="0.1" d="M122.942 244.312C123.439 244.312 123.843 243.909 123.843 243.413C123.843 242.916 123.439 242.513 122.942 242.513C122.444 242.513 122.041 242.916 122.041 243.413C122.041 243.909 122.444 244.312 122.942 244.312Z" fill="black"/>
<path opacity="0.1" d="M113.476 255.481C113.974 255.481 114.377 255.078 114.377 254.581C114.377 254.084 113.974 253.682 113.476 253.682C112.979 253.682 112.575 254.084 112.575 254.581C112.575 255.078 112.979 255.481 113.476 255.481Z" fill="black"/>
<path opacity="0.1" d="M111.524 251.058C112.021 251.058 112.425 250.656 112.425 250.159C112.425 249.662 112.021 249.259 111.524 249.259C111.026 249.259 110.623 249.662 110.623 250.159C110.623 250.656 111.026 251.058 111.524 251.058Z" fill="black"/>
<path opacity="0.1" d="M106.869 241.089C107.367 241.089 107.77 240.686 107.77 240.189C107.77 239.693 107.367 239.29 106.869 239.29C106.372 239.29 105.969 239.693 105.969 240.189C105.969 240.686 106.372 241.089 106.869 241.089Z" fill="black"/>
<path opacity="0.1" d="M123.242 286.363H95.8333V288.993H123.242V286.363Z" fill="black"/>
<path d="M127.29 262.976H91.479V288.087H127.29V262.976Z" fill="#474157"/>
<path opacity="0.1" d="M114.677 259.528C115.175 259.528 115.578 259.126 115.578 258.629C115.578 258.132 115.175 257.729 114.677 257.729C114.18 257.729 113.776 258.132 113.776 258.629C113.776 259.126 114.18 259.528 114.677 259.528Z" fill="black"/>
<path opacity="0.1" d="M109.272 260.653C109.769 260.653 110.173 260.25 110.173 259.753C110.173 259.256 109.769 258.854 109.272 258.854C108.774 258.854 108.371 259.256 108.371 259.753C108.371 260.25 108.774 260.653 109.272 260.653Z" fill="black"/>
<path d="M195.126 358.941C195.126 358.941 199.587 364.769 193.068 373.564C186.549 382.359 181.181 389.805 183.333 395.277C183.333 395.277 193.181 378.936 201.195 378.711C209.209 378.486 203.941 368.773 195.126 358.941Z" fill="#16CABF"/>
<path opacity="0.1" d="M195.126 358.941C195.516 359.503 195.824 360.117 196.04 360.765C203.854 369.935 208.021 378.493 200.507 378.711C193.506 378.93 185.11 391.423 183.096 394.546C183.165 394.79 183.246 395.033 183.333 395.264C183.333 395.264 193.181 378.924 201.195 378.699C209.209 378.474 203.942 368.773 195.126 358.941Z" fill="black"/>
<path d="M203.422 366.374C203.422 368.423 203.191 370.085 202.909 370.085C202.628 370.085 202.396 368.423 202.396 366.374C202.396 364.326 202.684 365.287 202.966 365.287C203.247 365.287 203.422 364.319 203.422 366.374Z" fill="#FFD037"/>
<path d="M206.269 368.823C204.467 369.804 202.897 370.397 202.759 370.147C202.621 369.897 203.973 368.898 205.781 367.917C207.589 366.936 206.869 367.649 207.032 367.917C207.195 368.186 208.077 367.842 206.269 368.823Z" fill="#FFD037"/>
<path d="M171.547 358.941C171.547 358.941 167.086 364.769 173.605 373.564C180.124 382.359 185.492 389.805 183.333 395.277C183.333 395.277 173.492 378.936 165.478 378.711C157.464 378.486 162.731 368.773 171.547 358.941Z" fill="#16CABF"/>
<path opacity="0.1" d="M171.547 358.941C171.157 359.503 170.849 360.117 170.633 360.765C162.819 369.935 158.652 378.493 166.166 378.711C173.167 378.93 181.563 391.423 183.577 394.546C183.509 394.79 183.428 395.029 183.333 395.264C183.333 395.264 173.492 378.93 165.478 378.717C157.464 378.505 162.731 368.773 171.547 358.941Z" fill="black"/>
<path d="M163.251 366.374C163.251 368.423 163.482 370.085 163.764 370.085C164.045 370.085 164.277 368.423 164.277 366.374C164.277 364.326 163.989 365.287 163.707 365.287C163.426 365.287 163.251 364.319 163.251 366.374Z" fill="#FFD037"/>
<path d="M160.404 368.823C162.206 369.804 163.776 370.397 163.914 370.147C164.052 369.897 162.7 368.898 160.892 367.917C159.084 366.936 159.804 367.649 159.641 367.917C159.478 368.186 158.596 367.842 160.404 368.823Z" fill="#FFD037"/>
<path opacity="0.1" d="M183.333 439.87C209.109 439.87 230.005 436.668 230.005 432.718C230.005 428.768 209.109 425.566 183.333 425.566C157.557 425.566 136.662 428.768 136.662 432.718C136.662 436.668 157.557 439.87 183.333 439.87Z" fill="#2271FF"/>
<path d="M207.357 387.431L207.132 389.249L206.819 391.823L206.694 392.891L206.375 395.464L206.244 396.539L205.931 399.106L202.39 428.339C202.071 430.95 197.798 432.981 192.649 432.981H174.055C168.9 432.981 164.671 430.95 164.321 428.339L160.742 399.106L160.429 396.539L160.298 395.464L159.979 392.891L159.854 391.823L159.541 389.249L159.316 387.431C159.134 385.957 161.443 384.708 164.364 384.708H202.315C205.224 384.708 207.539 385.957 207.357 387.431Z" fill="#65617D"/>
<path d="M207.132 389.249L206.819 391.816H159.854L159.541 389.249H207.132Z" fill="#9D9CB5"/>
<path d="M206.694 392.891L206.381 395.464H160.298L159.979 392.891H206.694Z" fill="#9D9CB5"/>
<path d="M206.244 396.532L205.931 399.106H160.742L160.429 396.532H206.244Z" fill="#9D9CB5"/>
</g>
<defs>
<linearGradient id="paint0_linear_1_38" x1="424.28" y1="495.957" x2="424.28" y2="173.583" gradientUnits="userSpaceOnUse">
<stop stop-color="#808080" stop-opacity="0.25"/>
<stop offset="0.54" stop-color="#808080" stop-opacity="0.12"/>
<stop offset="1" stop-color="#808080" stop-opacity="0.1"/>
</linearGradient>
<clipPath id="clip0_1_38">
<rect width="625" height="498" fill="white"/>
</clipPath>
</defs>
</svg>
